<?xml version="1.0" encoding="UTF-8"?>
<svg version="1.1" xmlns="http://www.w3.org/2000/svg" width="500" height="500">
<path d="M0 0 C0.83154602 0.00087616 1.66309204 0.00175232 2.51983643 0.00265503 C42.95680229 0.14256695 83.29656881 12.63118773 115.5625 37.375 C118.55178712 39.49303761 121.54459422 41.60578503 124.54296875 43.7109375 C125.20941406 44.26007813 125.87585938 44.80921875 126.5625 45.375 C126.5625 46.035 126.5625 46.695 126.5625 47.375 C127.160625 47.66375 127.75875 47.9525 128.375 48.25 C130.5625 49.375 130.5625 49.375 133.5625 51.375 C133.5625 52.035 133.5625 52.695 133.5625 53.375 C134.15200439 53.63547119 134.74150879 53.89594238 135.34887695 54.16430664 C137.70432503 55.45256814 139.15364235 56.78977613 140.98046875 58.74609375 C141.59470703 59.40287109 142.20894531 60.05964844 142.84179688 60.73632812 C143.47150391 61.42146484 144.10121094 62.10660156 144.75 62.8125 C145.71196289 63.8344043 145.71196289 63.8344043 146.69335938 64.87695312 C151.43323747 69.9872124 151.43323747 69.9872124 152.5625 73.375 C153.2225 73.375 153.8825 73.375 154.5625 73.375 C155.79931641 74.72021484 155.79931641 74.72021484 157.1640625 76.5859375 C157.65390625 77.25367187 158.14375 77.92140625 158.6484375 78.609375 C159.15632813 79.31578125 159.66421875 80.0221875 160.1875 80.75 C160.9609375 81.79800781 160.9609375 81.79800781 161.75 82.8671875 C165.5625 88.11189649 165.5625 88.11189649 165.5625 90.375 C166.2225 90.375 166.8825 90.375 167.5625 90.375 C193.80234835 126.55704509 206.60839912 175.05987354 204.5625 219.375 C204.52141113 220.26848145 204.48032227 221.16196289 204.43798828 222.08251953 C202.8145734 253.44606511 196.07407728 284.80363687 180.5625 312.375 C179.75215994 313.84610956 178.942282 315.31747374 178.1328125 316.7890625 C172.45516811 327.03599783 172.45516811 327.03599783 169.5625 331.375 C168.9025 331.375 168.2425 331.375 167.5625 331.375 C167.27375 332.138125 166.985 332.90125 166.6875 333.6875 C165.5625 336.375 165.5625 336.375 163.5625 339.375 C162.9025 339.375 162.2425 339.375 161.5625 339.375 C161.3046875 339.93703125 161.046875 340.4990625 160.78125 341.078125 C159.42080223 343.64204579 157.83461038 345.82726365 156.0625 348.125 C155.4540625 348.92421875 154.845625 349.7234375 154.21875 350.546875 C153.6721875 351.15015625 153.125625 351.7534375 152.5625 352.375 C151.9025 352.375 151.2425 352.375 150.5625 352.375 C150.5625 353.035 150.5625 353.695 150.5625 354.375 C149.9025 354.375 149.2425 354.375 148.5625 354.375 C148.294375 354.973125 148.02625 355.57125 147.75 356.1875 C146.56332594 358.37347854 145.46650887 359.78832594 143.5625 361.375 C142.9025 361.375 142.2425 361.375 141.5625 361.375 C141.5625 362.035 141.5625 362.695 141.5625 363.375 C140.9025 363.375 140.2425 363.375 139.5625 363.375 C139.5625 364.035 139.5625 364.695 139.5625 365.375 C138.9025 365.375 138.2425 365.375 137.5625 365.375 C137.5625 366.035 137.5625 366.695 137.5625 367.375 C135.6640625 369.1015625 135.6640625 369.1015625 133.1875 371 C132.37539063 371.63164062 131.56328125 372.26328125 130.7265625 372.9140625 C128.5625 374.375 128.5625 374.375 126.5625 374.375 C126.5625 375.035 126.5625 375.695 126.5625 376.375 C124.796875 377.85205078 124.796875 377.85205078 122.3125 379.5703125 C121.40250244 380.1998584 120.49250488 380.8294043 119.55493164 381.47802734 C109.52238734 388.25697259 99.71261403 394.61843487 88.5625 399.375 C87.70043945 399.74318848 86.83837891 400.11137695 85.95019531 400.49072266 C44.1897664 418.05615783 0.94891309 422.76443354 -43.4375 413.375 C-44.24058594 413.20516602 -45.04367188 413.03533203 -45.87109375 412.86035156 C-65.24990951 408.60387475 -84.01034526 400.79002814 -101.4375 391.375 C-101.4375 390.715 -101.4375 390.055 -101.4375 389.375 C-102.28441406 389.21064453 -102.28441406 389.21064453 -103.1484375 389.04296875 C-117.22086092 384.93651072 -134.72742656 369.19609495 -144.4375 358.375 C-144.4375 357.715 -144.4375 357.055 -144.4375 356.375 C-145.0975 356.375 -145.7575 356.375 -146.4375 356.375 C-146.4375 355.715 -146.4375 355.055 -146.4375 354.375 C-147.0975 354.375 -147.7575 354.375 -148.4375 354.375 C-148.4375 353.715 -148.4375 353.055 -148.4375 352.375 C-149.0975 352.375 -149.7575 352.375 -150.4375 352.375 C-150.4375 351.715 -150.4375 351.055 -150.4375 350.375 C-151.0975 350.375 -151.7575 350.375 -152.4375 350.375 C-154.23000007 348.30789134 -155.90577232 346.23478476 -157.5625 344.0625 C-158.05459961 343.42530029 -158.54669922 342.78810059 -159.05371094 342.1315918 C-163.28952189 336.62324623 -167.46195521 331.07497982 -171.4375 325.375 C-172.02015625 324.54097656 -172.6028125 323.70695312 -173.203125 322.84765625 C-178.1805161 315.39277994 -181.87320136 307.44862488 -185.5546875 299.30371094 C-186.29193163 297.69302824 -187.06371674 296.09821364 -187.84375 294.5078125 C-210.53158629 247.82322628 -208.93643312 188.17111378 -192.68359375 139.8046875 C-191.23637012 135.82141996 -189.59736053 131.99576135 -187.765625 128.17578125 C-186.16593768 124.80232298 -184.7046505 121.37511797 -183.25 117.9375 C-181.73613068 114.36253156 -180.22476674 110.8224766 -178.4375 107.375 C-177.7775 107.375 -177.1175 107.375 -176.4375 107.375 C-176.334375 106.8284375 -176.23125 106.281875 -176.125 105.71875 C-173.26134452 95.95628814 -165.60563548 87.2517305 -159.4375 79.375 C-158.80070312 78.54355469 -158.16390625 77.71210937 -157.5078125 76.85546875 C-144.13694573 59.6841689 -128.16636349 43.67241939 -109.4375 32.375 C-108.7775 32.375 -108.1175 32.375 -107.4375 32.375 C-107.4375 31.715 -107.4375 31.055 -107.4375 30.375 C-87.68201118 19.00891447 -68.57879402 10.84170844 -46.4375 5.375 C-45.19871094 5.05660156 -43.95992187 4.73820312 -42.68359375 4.41015625 C-28.51159826 0.91497699 -14.53135162 -0.03765541 0 0 Z M-60.57421875 49.17578125 C-62.88395621 50.14316106 -64.99520101 50.86990167 -67.4375 51.375 C-67.4375 52.035 -67.4375 52.695 -67.4375 53.375 C-68.7575 53.375 -70.0775 53.375 -71.4375 53.375 C-71.4375 54.035 -71.4375 54.695 -71.4375 55.375 C-71.99308594 55.48585938 -72.54867187 55.59671875 -73.12109375 55.7109375 C-86.04321714 59.41542481 -97.82584477 69.41620085 -107.78515625 78.1171875 C-110.4375 80.375 -110.4375 80.375 -112.4375 81.375 C-112.4375 82.035 -112.4375 82.695 -112.4375 83.375 C-113.0975 83.375 -113.7575 83.375 -114.4375 83.375 C-114.4375 84.035 -114.4375 84.695 -114.4375 85.375 C-115.0975 85.375 -115.7575 85.375 -116.4375 85.375 C-118.98486136 87.83768453 -121.16779215 90.65743792 -123.4375 93.375 C-124.44683594 94.53708984 -124.44683594 94.53708984 -125.4765625 95.72265625 C-156.01721744 131.64957215 -168.73653399 174.60977635 -167.4375 221.375 C-167.40914062 222.5609375 -167.38078125 223.746875 -167.3515625 224.96875 C-166.46399006 245.42518148 -159.43370462 263.68826873 -146.4375 279.375 C-145.72980469 280.30957031 -145.02210938 281.24414062 -144.29296875 282.20703125 C-143.37451172 283.28017578 -143.37451172 283.28017578 -142.4375 284.375 C-141.7775 284.375 -141.1175 284.375 -140.4375 284.375 C-140.4375 285.035 -140.4375 285.695 -140.4375 286.375 C-138.49374046 288.19128776 -138.49374046 288.19128776 -136.0625 290 C-135.25039062 290.63164062 -134.43828125 291.26328125 -133.6015625 291.9140625 C-131.59640121 293.56150808 -131.59640121 293.56150808 -129.4375 293.375 C-129.4375 294.035 -129.4375 294.695 -129.4375 295.375 C-127.19599376 297.0154154 -124.9696169 298.52162087 -122.625 300 C-121.98240234 300.42023438 -121.33980469 300.84046875 -120.67773438 301.2734375 C-116.86459916 303.76042974 -116.86459916 303.76042974 -112.4375 304.375 C-112.4375 305.035 -112.4375 305.695 -112.4375 306.375 C-91.76465045 316.67602606 -70.16638561 321.60262367 -47.0625 321.625 C-46.34341461 321.62600708 -45.62432922 321.62701416 -44.88345337 321.62805176 C-34.05492958 321.61778561 -24.00386495 320.86434584 -13.4375 318.375 C-11.86984677 318.0748538 -10.30073424 317.78225919 -8.73046875 317.49609375 C13.14470936 313.41885138 31.02307619 303.68699312 48.84814453 290.62695312 C50.2377164 289.61218175 51.64555434 288.6224552 53.05859375 287.640625 C53.55488281 287.22296875 54.05117188 286.8053125 54.5625 286.375 C54.5625 285.715 54.5625 285.055 54.5625 284.375 C55.2225 284.375 55.8825 284.375 56.5625 284.375 C56.5625 283.715 56.5625 283.055 56.5625 282.375 C57.2225 282.375 57.8825 282.375 58.5625 282.375 C58.5625 281.715 58.5625 281.055 58.5625 280.375 C59.2225 280.375 59.8825 280.375 60.5625 280.375 C60.5625 279.715 60.5625 279.055 60.5625 278.375 C61.2225 278.375 61.8825 278.375 62.5625 278.375 C64.41160453 276.16332596 66.12519318 273.95617344 67.8125 271.625 C68.30758057 270.94195801 68.80266113 270.25891602 69.31274414 269.55517578 C76.22250686 259.8304925 80.44763048 249.87605667 83.5625 238.375 C83.82728149 237.4627063 83.82728149 237.4627063 84.09741211 236.53198242 C85.0736348 232.00446142 84.79028422 227.30005186 84.8125 222.6875 C84.833125 221.63626953 84.85375 220.58503906 84.875 219.50195312 C84.9316625 208.11987371 81.50850949 196.85074346 73.5625 188.375 C72.9025 188.375 72.2425 188.375 71.5625 188.375 C71.5625 187.715 71.5625 187.055 71.5625 186.375 C68.50691577 183.34982091 68.50691577 183.34982091 64.5625 182.375 C64.5625 181.715 64.5625 181.055 64.5625 180.375 C50.33246153 172.57875552 35.88751927 168.50135873 19.6875 172.625 C7.27167319 176.56217222 -5.45281492 182.97140388 -15.4375 191.375 C-15.4375 192.035 -15.4375 192.695 -15.4375 193.375 C-15.994375 193.6225 -16.55125 193.87 -17.125 194.125 C-19.86160913 195.60424818 -22.11400869 197.30967439 -24.4375 199.375 C-24.4375 200.035 -24.4375 200.695 -24.4375 201.375 C-25.02917969 201.62507812 -25.62085938 201.87515625 -26.23046875 202.1328125 C-28.73127372 203.54034521 -29.97737927 205.00778284 -31.75 207.25 C-35.06326894 211.12843209 -37.69443892 213.42695705 -42.4375 215.375 C-46.96719924 215.53677497 -49.74964008 214.46646708 -53.3125 211.8125 C-56.17538237 209.08563693 -57.62224069 206.6595551 -57.75390625 202.5546875 C-56.31706734 192.65646392 -47.09807647 180.99614689 -40.12890625 174.0859375 C-38.20315466 172.53892525 -38.20315466 172.53892525 -38.4375 170.375 C-37.7775 170.375 -37.1175 170.375 -36.4375 170.375 C-35.28839302 168.9555149 -34.14105951 167.53454792 -33.00390625 166.10546875 C-29.79410241 162.55947598 -25.7175037 159.51500185 -21.4375 157.375 C-21.4375 156.715 -21.4375 156.055 -21.4375 155.375 C-20.37402344 154.96894531 -20.37402344 154.96894531 -19.2890625 154.5546875 C-16.36873684 153.34655277 -13.61564035 151.95823743 -10.8125 150.5 C11.50869913 139.31217946 38.01735276 135.4712526 62.08520508 143.30566406 C91.09972923 153.44945845 91.09972923 153.44945845 96.5625 164.375 C97.2225 164.375 97.8825 164.375 98.5625 164.375 C98.83320313 164.93703125 99.10390625 165.4990625 99.3828125 166.078125 C100.62892268 168.50432629 102.00938212 170.80153361 103.4375 173.125 C116.64634594 195.08630939 120.66749544 220.77336076 115 246 C114.28825325 248.828479 113.46201075 251.60091659 112.5625 254.375 C112.32644043 255.11363281 112.09038086 255.85226562 111.84716797 256.61328125 C106.85570495 271.72605387 98.89122084 285.26782391 88.5625 297.375 C87.86511719 298.19355469 87.16773438 299.01210938 86.44921875 299.85546875 C55.16881479 335.56591265 9.78256026 350.23012992 -36.4375 353.375 C-56.39640658 354.54370335 -78.78452748 352.26821718 -97.6875 345.625 C-101.3125 344 -101.3125 344 -104.4375 345.375 C-102.00548137 347.05019118 -99.56752202 348.71525134 -97.125 350.375 C-96.43470703 350.85195313 -95.74441406 351.32890625 -95.03320312 351.8203125 C-94.36611328 352.27148438 -93.69902344 352.72265625 -93.01171875 353.1875 C-92.39901123 353.60644531 -91.78630371 354.02539062 -91.1550293 354.45703125 C-89.32110743 355.61068443 -89.32110743 355.61068443 -86.4375 355.375 C-86.4375 356.035 -86.4375 356.695 -86.4375 357.375 C-85.756875 357.7153125 -85.07625 358.055625 -84.375 358.40625 C-82.9209375 359.13328125 -82.9209375 359.13328125 -81.4375 359.875 C-80.34050781 360.42027344 -79.24351562 360.96554687 -78.11328125 361.52734375 C-75.59594339 362.78431132 -73.09710695 364.07178643 -70.60546875 365.37890625 C-33.09594348 384.89983275 9.76712654 386.56980773 49.86157227 374.22485352 C51.76545374 373.61935528 53.66417477 372.99769904 55.5625 372.375 C56.52929688 372.06949219 57.49609375 371.76398438 58.4921875 371.44921875 C73.86967662 366.27015342 87.41353125 357.70831006 100.5625 348.375 C101.70525391 347.56724121 101.70525391 347.56724121 102.87109375 346.74316406 C103.60457031 346.21174805 104.33804687 345.68033203 105.09375 345.1328125 C105.75955078 344.65215332 106.42535156 344.17149414 107.11132812 343.67626953 C107.59021484 343.24685059 108.06910156 342.81743164 108.5625 342.375 C108.5625 341.715 108.5625 341.055 108.5625 340.375 C109.11421875 340.148125 109.6659375 339.92125 110.234375 339.6875 C113.25619145 337.98392563 115.36696507 335.83450941 117.8125 333.375 C118.70453125 332.488125 119.5965625 331.60125 120.515625 330.6875 C135.29779064 315.08839243 147.44287603 296.22881852 155.5625 276.375 C155.84915527 275.68696289 156.13581055 274.99892578 156.43115234 274.29003906 C164.74752415 253.94157376 167.79453222 232.21376904 167.8125 210.375 C167.81317474 209.63823029 167.81384949 208.90146057 167.81454468 208.1423645 C167.79871211 197.26361238 167.39347771 186.9402088 164.5625 176.375 C164.38557617 175.69743652 164.20865234 175.01987305 164.02636719 174.32177734 C161.64224238 165.37204457 158.42727746 157.29946645 153.5625 149.375 C153.09328125 148.56675781 152.6240625 147.75851563 152.140625 146.92578125 C150.47420395 144.06617349 150.47420395 144.06617349 148.5625 141.375 C147.9025 141.375 147.2425 141.375 146.5625 141.375 C146.33046875 140.81167969 146.0984375 140.24835938 145.859375 139.66796875 C136.27001917 122.71329444 110.32356257 112.55584692 92.640625 107.4375 C86.03372924 105.64319271 79.30792534 104.5133386 72.5625 103.375 C71.82338379 103.20299072 71.08426758 103.03098145 70.32275391 102.85375977 C66.86915215 102.25474039 63.46732107 102.17499896 59.97265625 102.13671875 C59.24005585 102.1269249 58.50745544 102.11713104 57.75265503 102.10704041 C41.32564581 101.93292585 25.54678381 102.10949453 9.5625 106.375 C8.33756836 106.69645996 8.33756836 106.69645996 7.08789062 107.02441406 C-14.20777863 112.78884463 -31.36098769 122.18417201 -47.4375 137.375 C-48.13746094 138.02210938 -48.83742188 138.66921875 -49.55859375 139.3359375 C-64.69012658 153.78905853 -73.54361585 173.14518076 -74.56640625 194.00390625 C-74.84478746 207.05070563 -71.45618482 218.81132315 -65.4375 230.375 C-64.7775 230.375 -64.1175 230.375 -63.4375 230.375 C-63.210625 231.07625 -62.98375 231.7775 -62.75 232.5 C-61.09908712 236.11628535 -59.1466165 238.46269976 -56.4375 241.375 C-55.7775 241.375 -55.1175 241.375 -54.4375 241.375 C-54.4375 242.035 -54.4375 242.695 -54.4375 243.375 C-44.10833317 251.17457495 -29.35230339 255.5430905 -16.4375 254.375 C-3.49755196 252.03806408 9.91866095 247.79192519 19.5625 238.375 C19.5625 237.715 19.5625 237.055 19.5625 236.375 C20.13484375 236.1275 20.7071875 235.88 21.296875 235.625 C23.91260611 234.18183801 25.71023456 232.49283778 27.8125 230.375 C28.51890625 229.67375 29.2253125 228.9725 29.953125 228.25 C31.77960399 226.53389232 31.77960399 226.53389232 31.5625 224.375 C32.2225 224.375 32.8825 224.375 33.5625 224.375 C35.33921697 222.69540162 35.33921697 222.69540162 37.125 220.5625 C37.74503906 219.85480469 38.36507812 219.14710938 39.00390625 218.41796875 C40.74674754 216.36226532 40.74674754 216.36226532 41.5625 213.375 C46.20648011 211.82700663 50.88767708 211.87905667 55.5625 213.375 C55.5625 214.035 55.5625 214.695 55.5625 215.375 C56.2225 215.375 56.8825 215.375 57.5625 215.375 C57.5625 216.035 57.5625 216.695 57.5625 217.375 C58.2225 217.375 58.8825 217.375 59.5625 217.375 C60.46602451 233.10301927 53.54244054 245.6331326 43.28515625 257.19921875 C35.91357206 265.06475886 27.91318913 271.07700441 18.5625 276.375 C17.15484375 277.23544922 17.15484375 277.23544922 15.71875 278.11328125 C-2.63801289 288.5034153 -26.36878241 288.77228784 -46.33984375 283.57421875 C-55.04915857 281.11660992 -62.75791111 277.46478734 -70.37890625 272.609375 C-72.50999172 271.23047054 -72.50999172 271.23047054 -75.4375 270.375 C-75.4375 269.715 -75.4375 269.055 -75.4375 268.375 C-78.49308423 265.34982091 -78.49308423 265.34982091 -82.4375 264.375 C-82.4375 263.715 -82.4375 263.055 -82.4375 262.375 C-83.0975 262.375 -83.7575 262.375 -84.4375 262.375 C-84.70175781 261.7975 -84.96601563 261.22 -85.23828125 260.625 C-86.49213856 258.27248596 -87.92686327 256.4267533 -89.625 254.375 C-96.34107804 245.83998416 -101.24244759 236.750852 -104.4375 226.375 C-104.65148437 225.70082031 -104.86546875 225.02664063 -105.0859375 224.33203125 C-112.39943109 198.62881101 -106.86587918 168.0005069 -94.625 144.8125 C-90.32861516 137.2468866 -85.69501376 129.7950982 -79.9375 123.25 C-77.21877376 120.75845444 -77.21877376 120.75845444 -77.4375 118.375 C-76.7775 118.375 -76.1175 118.375 -75.4375 118.375 C-73.76872279 116.68694368 -73.76872279 116.68694368 -72.0625 114.5625 C-70.20183718 112.31249143 -68.56877297 110.47149715 -66.2109375 108.73828125 C-65.62570313 108.28839844 -65.04046875 107.83851563 -64.4375 107.375 C-64.4375 106.715 -64.4375 106.055 -64.4375 105.375 C-63.60605469 105.00375 -63.60605469 105.00375 -62.7578125 104.625 C-60.00614912 103.14262242 -57.75667087 101.32476593 -55.3125 99.375 C-47.57987809 93.41109439 -39.07823178 88.87508829 -30.4375 84.375 C-28.78427734 83.50681641 -28.78427734 83.50681641 -27.09765625 82.62109375 C10.14136164 64.26518146 52.93415519 65.33082777 92.27734375 75.54296875 C95.36343752 76.32458346 98.4163174 76.89947011 101.5625 77.375 C97.05098592 72.66643128 91.88810404 69.10676341 86.5625 65.375 C85.985 64.96910645 85.4075 64.56321289 84.8125 64.14501953 C41.39679886 33.81718735 -11.68967397 28.08290292 -60.57421875 49.17578125 Z " fill="#0B0B0B" transform="translate(254.4375,45.625)"/>
<path d="M0 0 C0.70374756 0.07831055 1.40749512 0.15662109 2.13256836 0.23730469 C7.19632014 0.88382014 7.19632014 0.88382014 9.4375 3.125 C8.179375 3.0528125 6.92125 2.980625 5.625 2.90625 C-15.49427896 1.685194 -15.49427896 1.685194 -36.5625 3.125 C-29.2654263 -4.1720737 -9.59551816 -1.1046735 0 0 Z " fill="#8A8A8A" transform="translate(302.5625,184.875)"/>
<path d="M0 0 C0.66 0.33 1.32 0.66 2 1 C-10.76595745 15.14893617 -10.76595745 15.14893617 -18 21 C-18 16.68381834 -15.86729652 15.07210341 -13 12 C-12.34 12 -11.68 12 -11 12 C-10.34 10.68 -9.68 9.36 -9 8 C-8.34 8 -7.68 8 -7 8 C-6.67 7.01 -6.34 6.02 -6 5 C-4.12382302 3.15500602 -2.07262391 1.6316401 0 0 Z " fill="#818181" transform="translate(229,204)"/>
<path d="M0 0 C-19.60717719 8.49343159 -19.60717719 8.49343159 -29 8 C-25.15909227 4.3409737 -20.43415537 3.58949088 -15.4375 2.375 C-13.72770331 1.94595468 -12.01806116 1.51629293 -10.30859375 1.0859375 C-9.55376709 0.9007959 -8.79894043 0.7156543 -8.02124023 0.52490234 C-2.62746962 -0.87582321 -2.62746962 -0.87582321 0 0 Z " fill="#919191" transform="translate(284,386)"/>
<path d="M0 0 C0.33 0 0.66 0 1 0 C1 8.58 1 17.16 1 26 C-3.01461314 19.97808029 -2.70273075 13.2591594 -1.55078125 6.27734375 C-1.08074883 4.17386534 -0.54684072 2.08483024 0 0 Z " fill="#6D6D6D" transform="translate(180,229)"/>
<path d="M0 0 C0.66 0.33 1.32 0.66 2 1 C1.52949219 1.38671875 1.05898437 1.7734375 0.57421875 2.171875 C-3.31681737 5.39642085 -3.31681737 5.39642085 -6.625 9.1875 C-8.39863676 11.52547574 -10.47248194 12.54667712 -13 14 C-14.75149165 15.58245275 -14.75149165 15.58245275 -16 17 C-16.66 16.67 -17.32 16.34 -18 16 C-17.0479279 14.99403703 -16.08812654 13.99538437 -15.125 13 C-14.32449219 12.1646875 -14.32449219 12.1646875 -13.5078125 11.3125 C-12 10 -12 10 -10 10 C-10 9.34 -10 8.68 -10 8 C-8.38542921 6.56418526 -6.70780925 5.19855217 -5 3.875 C-4.071875 3.15054688 -3.14375 2.42609375 -2.1875 1.6796875 C-1.1046875 0.84824219 -1.1046875 0.84824219 0 0 Z " fill="#9F9F9F" transform="translate(200,143)"/>
<path d="M0 0 C0.66 0.33 1.32 0.66 2 1 C-2.91005878 8.64367306 -2.91005878 8.64367306 -7.25 10.0625 C-10 10 -10 10 -12 9 C-8.04 6.03 -4.08 3.06 0 0 Z " fill="#626262" transform="translate(360,389)"/>
<path d="M0 0 C0 4.03642603 -1.46826873 5.08573345 -4.125 8.0625 C-5.27355469 9.37927734 -5.27355469 9.37927734 -6.4453125 10.72265625 C-9.22606639 13.20152401 -11.42234213 14.08225298 -15 15 C-14.34 14.01 -13.68 13.02 -13 12 C-12.34 12 -11.68 12 -11 12 C-11 11.34 -11 10.68 -11 10 C-9.35546875 8.37890625 -9.35546875 8.37890625 -7.1875 6.5625 C-4.68897282 4.45536324 -2.2757944 2.34758602 0 0 Z " fill="#898989" transform="translate(285,272)"/>
<path d="M0 0 C2.12534659 0.14069196 4.25027529 0.28770921 6.375 0.4375 C8.15003906 0.55931641 8.15003906 0.55931641 9.9609375 0.68359375 C13 1 13 1 15 2 C15 2.66 15 3.32 15 4 C15.99 4.33 16.98 4.66 18 5 C14.78368575 6.60815713 11.74939576 5.09465808 8.4375 4.1875 C7.39045898 3.91969727 7.39045898 3.91969727 6.32226562 3.64648438 C4.52882558 3.1646387 2.76132774 2.58849557 1 2 C0.67 1.34 0.34 0.68 0 0 Z " fill="#959595" transform="translate(345,121)"/>
<path d="M0 0 C7.4596963 0.74596963 14.68951218 2.36746129 22 4 C22 4.33 22 4.66 22 5 C14.25 5.125 14.25 5.125 12 4 C9.73234399 3.76764056 7.46638586 3.61898297 5.19140625 3.4765625 C2.60074516 2.91317453 1.67020423 2.00854143 0 0 Z " fill="#A3A3A3" transform="translate(207,421)"/>
<path d="M0 0 C4.1452827 0.54068905 8.26219801 1.18703182 12.375 1.9375 C13.65503906 2.16759766 13.65503906 2.16759766 14.9609375 2.40234375 C15.63382813 2.59957031 16.30671875 2.79679687 17 3 C17.33 3.66 17.66 4.32 18 5 C11.56318772 4.48914188 6.04057576 3.27057103 0 1 C0 0.67 0 0.34 0 0 Z " fill="#9A9A9A" transform="translate(198,326)"/>
<path d="M0 0 C0.66 0.33 1.32 0.66 2 1 C-1.82180842 5.4008703 -4.47371099 6.80805531 -10 8 C-10 7.34 -10 6.68 -10 6 C-7.8828125 4.45703125 -7.8828125 4.45703125 -5.125 2.8125 C-4.22007812 2.26207031 -3.31515625 1.71164063 -2.3828125 1.14453125 C-1.20332031 0.57798828 -1.20332031 0.57798828 0 0 Z " fill="#777777" transform="translate(243,195)"/>
<path d="M0 0 C1.07667519 3.32524173 0.98094365 4.058172 -0.1875 7.625 C-1.94781917 10.90283569 -2.5458087 11.9280096 -6 13 C-4.31326082 8.50202887 -2.18326108 4.27113698 0 0 Z " fill="#6B6B6B" transform="translate(332,299)"/>
<path d="M0 0 C1.57159226 3.14318453 0.04018399 5.92933389 -0.9375 9.125 C-1.13279297 9.78371094 -1.32808594 10.44242188 -1.52929688 11.12109375 C-2.01304986 12.74933552 -2.50569075 14.37493182 -3 16 C-3.33 16 -3.66 16 -4 16 C-4.46450943 9.49686791 -3.32575612 5.5825192 0 0 Z " fill="#939393" transform="translate(97,194)"/>
<path d="M0 0 C1 2 1 2 0.25 4.875 C-0.88533421 7.71333554 -2.04083424 9.68462228 -4 12 C-3.45660208 7.43545749 -2.20536179 4.0271824 0 0 Z " fill="#8D8D8D" transform="translate(157,195)"/>
</svg>
