<?xml version="1.0" encoding="UTF-8"?>
<svg version="1.1" xmlns="http://www.w3.org/2000/svg" width="500" height="500">
<path d="M0 0 C165 0 330 0 500 0 C500 165 500 330 500 500 C335 500 170 500 0 500 C0 335 0 170 0 0 Z " fill="#F6F3EE" transform="translate(0,0)"/>
<path d="M0 0 C165 0 330 0 500 0 C500 165 500 330 500 500 C335 500 170 500 0 500 C0 335 0 170 0 0 Z M213 50 C211.78626709 50.23372314 210.57253418 50.46744629 209.32202148 50.70825195 C199.56205002 52.6678471 190.39019782 56.38135949 181.20703125 60.14453125 C178.82521778 61.06774744 176.51372497 61.56907572 174 62 C174 62.66 174 63.32 174 64 C172.453125 64.0928125 172.453125 64.0928125 170.875 64.1875 C166.91582454 65.01764969 165.64177698 66.08530973 162.69970703 68.66088867 C159.74548817 70.98836504 156.39054368 72.472386 153 74.0625 C148.07642045 76.39934932 143.37011352 78.71558656 139 82 C139 82.66 139 83.32 139 84 C138.21625 84.309375 137.4325 84.61875 136.625 84.9375 C134.07669872 85.92875038 134.07669872 85.92875038 132 87 C132 87.66 132 88.32 132 89 C131.12456543 89.39928711 131.12456543 89.39928711 130.23144531 89.80664062 C122.97590029 93.68684895 117.03865553 100.75247169 111.25 106.5 C110.50878906 107.22058594 109.76757812 107.94117188 109.00390625 108.68359375 C104.77263521 112.88447864 101.82549131 116.77152075 99 122 C98.01 122.66 97.02 123.32 96 124 C96 124.66 96 125.32 96 126 C95.34 126 94.68 126 94 126 C92.59821431 127.90993301 91.27709628 129.87953707 90 131.875 C86.17218543 137.82781457 86.17218543 137.82781457 84 140 C83.2734829 141.6425604 82.54792313 143.28631722 81.87890625 144.953125 C79.69387977 150.04180889 77.02600532 154.9206163 74.4375 159.8125 C73.53837891 161.52373047 73.53837891 161.52373047 72.62109375 163.26953125 C71 166 71 166 69 167 C68.31503918 169.01599822 67.72879588 171.06577226 67.1875 173.125 C65.71830094 178.48099806 64.1711453 183.78595954 62.4375 189.0625 C61.84775391 190.87427734 61.84775391 190.87427734 61.24609375 192.72265625 C60 196 60 196 58.4765625 198.21875 C56.10735922 202.68137628 55.68445313 207.47932967 54.9375 212.4375 C54.77701172 213.44232422 54.61652344 214.44714844 54.45117188 215.48242188 C54.12110085 217.57022051 53.80137426 219.6596757 53.4909668 221.75048828 C53.16408988 223.91395509 52.81401076 226.07404525 52.44067383 228.22998047 C50.9292585 237.44069173 50.72399807 246.43681509 50.79418945 255.7421875 C50.8125768 258.26051909 50.81469734 260.7784828 50.81445312 263.296875 C49.83123481 276.49534524 49.83123481 276.49534524 53 288 C53.23192865 289.51469448 53.41215238 291.03754562 53.5625 292.5625 C53.64628906 293.38878906 53.73007812 294.21507812 53.81640625 295.06640625 C53.87699219 295.70449219 53.93757813 296.34257812 54 297 C54.66 297 55.32 297 56 297 C55.96132813 297.95648438 55.92265625 298.91296875 55.8828125 299.8984375 C55.88518387 304.61034757 56.86496603 309.04044866 57.875 313.625 C58.04902344 314.45773437 58.22304688 315.29046875 58.40234375 316.1484375 C59.28883907 320.2722824 60.25037413 324.13821316 62 328 C62.66 328 63.32 328 64 328 C64.10699219 328.67289062 64.21398437 329.34578125 64.32421875 330.0390625 C65.14476875 333.63430468 66.43350717 336.96686884 67.8125 340.375 C68.06064453 341.00921875 68.30878906 341.6434375 68.56445312 342.296875 C70.36169888 346.77855653 72.5409228 350.84482971 75 355 C75.33 355.66 75.66 356.32 76 357 C76.66 357 77.32 357 78 357 C78.12375 357.5775 78.2475 358.155 78.375 358.75 C79.00648824 361.02335767 79.88858191 362.9253529 81 365 C81.66 365 82.32 365 83 365 C83.11730469 365.56847656 83.23460937 366.13695312 83.35546875 366.72265625 C85.03039475 372.64072813 88.82909801 378.5414496 93 383 C93.66 383 94.32 383 95 383 C95.4021875 383.86625 95.4021875 383.86625 95.8125 384.75 C97.02929189 387.05550043 98.30333879 389.02056192 100 391 C100.66 391 101.32 391 102 391 C102.144375 391.61875 102.28875 392.2375 102.4375 392.875 C102.93152225 395.03258322 102.93152225 395.03258322 104 397 C104.99 397.33 105.98 397.66 107 398 C108.75390625 399.7421875 108.75390625 399.7421875 110.5625 401.875 C111.16191406 402.57367188 111.76132813 403.27234375 112.37890625 403.9921875 C114 406 114 406 116 409 C116.70125 409.4125 117.4025 409.825 118.125 410.25 C120.73338626 411.83771338 122.73890059 413.46927676 125 415.5 C129.0272368 419.09574714 133.14331612 421.66159665 138 424 C138 424.66 138 425.32 138 426 C139.4540625 426.680625 139.4540625 426.680625 140.9375 427.375 C144 429 144 429 145 431 C148.38581708 433.24325337 151.91273648 434.93135391 155.625 436.5625 C158.65337951 437.89415729 161.23783441 439.15855628 164 441 C164.99 441 165.98 441 167 441 C167 441.66 167 442.32 167 443 C170.60012284 445.08428164 173.81274622 446.24165097 177.875 446.9375 C181.15198197 447.52319397 183.68424981 448.21272967 186.5625 449.875 C193.04773097 453.4614271 200.8209855 454.46630145 208 456 C208 456.66 208 457.32 208 458 C225.43958421 462.42581241 242.44128416 463.54832444 260.375 463.625 C261.37950195 463.63748779 262.38400391 463.64997559 263.41894531 463.6628418 C278.23555811 463.81380989 291.70584217 461.90303636 306 458 C306 457.34 306 456.68 306 456 C307.093125 455.855625 308.18625 455.71125 309.3125 455.5625 C312.93122987 455.11711896 312.93122987 455.11711896 316 454 C316 453.34 316 452.68 316 452 C317.093125 452.020625 318.18625 452.04125 319.3125 452.0625 C322.94384191 452.18544452 322.94384191 452.18544452 326 451 C326 450.34 326 449.68 326 449 C327.155 448.896875 328.31 448.79375 329.5 448.6875 C334.01171519 448.13964887 337.80605749 446.7225121 342 445 C342 444.34 342 443.68 342 443 C342.71542969 442.87753906 343.43085938 442.75507813 344.16796875 442.62890625 C347.05112713 441.98864625 349.58592473 441.06448444 352.3125 439.9375 C353.19550781 439.57527344 354.07851563 439.21304687 354.98828125 438.83984375 C355.98408203 438.42412109 355.98408203 438.42412109 357 438 C357 437.34 357 436.68 357 436 C357.78375 435.7525 358.5675 435.505 359.375 435.25 C362.43639814 433.79219136 362.58706519 432.92006527 364 430 C365.33242757 429.66306429 366.6660032 429.33066814 368 429 C369.93904966 428.02235066 371.85490842 426.99784886 373.75 425.9375 C374.73484375 425.38964844 375.7196875 424.84179688 376.734375 424.27734375 C377.48203125 423.85582031 378.2296875 423.43429687 379 423 C379 422.01 379 421.02 379 420 C379.99 419.67 380.98 419.34 382 419 C382 418.34 382 417.68 382 417 C382.99 417 383.98 417 385 417 C385 416.34 385 415.68 385 415 C385.5259375 414.79375 386.051875 414.5875 386.59375 414.375 C390.03356101 412.40939371 392.6551041 409.73522871 395.5 407 C398.87012293 403.75979111 401.75620498 401.02648028 406 399 C407.93050896 397.17172679 407.93050896 397.17172679 409.6875 395.0625 C410.28949219 394.37285156 410.89148438 393.68320312 411.51171875 392.97265625 C413.1871876 390.96998029 413.1871876 390.96998029 414 388 C414.66 387.67 415.32 387.34 416 387 C418.30036185 383.76651288 418.30036185 383.76651288 419 380 C419.66 380 420.32 380 421 380 C423.31592022 376.77885843 423.31592022 376.77885843 424 373 C424.61875 372.731875 425.2375 372.46375 425.875 372.1875 C428.2995233 371.04443152 428.2995233 371.04443152 430 368 C430 367.01 430 366.02 430 365 C430.66 365 431.32 365 432 365 C434.0122091 360.58743995 435.97173751 356.18630881 437.625 351.625 C439 348 439 348 441 345 C441 343.68 441 342.36 441 341 C441.66 341 442.32 341 443 341 C447.85649542 330.53786891 451.32671665 320.4256095 453.38671875 309.08984375 C454 306 454 306 455 304 C456.57079376 295.13762037 456.09356557 285.961502 456 277 C456.66 277 457.32 277 458 277 C458.05006956 271.29322536 458.08603072 265.58658331 458.10986328 259.87963867 C458.11981638 257.94504565 458.13338371 256.01046725 458.15087891 254.07592773 C458.6138707 230.39115978 458.6138707 230.39115978 452.98828125 207.6171875 C451.86048986 204.63054628 451.53588183 201.91989182 451.1875 198.75 C450.4281249 193.36147432 449.04659087 189.65109607 446.17578125 185.078125 C444.34782885 181.84732542 443.72455689 178.62278447 443 175 C442.34 175 441.68 175 441 175 C441 173.68 441 172.36 441 171 C440.34 171 439.68 171 439 171 C439 169.68 439 168.36 439 167 C438.34 167 437.68 167 437 167 C436.896875 166.360625 436.79375 165.72125 436.6875 165.0625 C435.76096927 160.93522674 434.38339371 156.99357051 433 153 C432.34 153 431.68 153 431 153 C430.814375 152.21625 430.62875 151.4325 430.4375 150.625 C427.89651605 144.21730135 423.58706377 138.77908184 419.125 133.5625 C417 131 417 131 416 128 C415.38125 127.54625 414.7625 127.0925 414.125 126.625 C411.57250574 124.67309262 410.6091731 122.78510729 409 120 C405.75751877 115.2682396 402.62015857 111.46511893 398 108 C397.34 107.01 396.68 106.02 396 105 C395.236875 104.54625 394.47375 104.0925 393.6875 103.625 C389.76569153 101.25367395 386.94443187 97.9983994 383.8125 94.6875 C376.39287596 87.11421624 376.39287596 87.11421624 367 83 C367 82.34 367 81.68 367 81 C365.51363242 79.6393991 365.51363242 79.6393991 363.625 78.375 C362.99851562 77.92898437 362.37203125 77.48296875 361.7265625 77.0234375 C360.04777357 75.83003031 360.04777357 75.83003031 358 76 C358 75.34 358 74.68 358 74 C357.01 74 356.02 74 355 74 C354.67 73.01 354.34 72.02 354 71 C352.67696283 70.6278958 351.34262065 70.29369827 350 70 C349.67 69.34 349.34 68.68 349 68 C347.2137116 67.26598743 345.39485184 66.60998969 343.5625 66 C338.21526419 64.21526419 338.21526419 64.21526419 336 62 C335.01 62 334.02 62 333 62 C333 61.34 333 60.68 333 60 C329.7 59.67 326.4 59.34 323 59 C323 58.34 323 57.68 323 57 C322.14535156 56.72285156 321.29070312 56.44570313 320.41015625 56.16015625 C318.75306641 55.61681641 318.75306641 55.61681641 317.0625 55.0625 C315.96035156 54.70285156 314.85820312 54.34320313 313.72265625 53.97265625 C311 53 311 53 310 52 C308.05336815 51.64213701 306.09638486 51.34025925 304.13671875 51.0625 C302.34137695 50.80339844 302.34137695 50.80339844 300.50976562 50.5390625 C298.61774414 50.27222656 298.61774414 50.27222656 296.6875 50 C294.21198298 49.64763141 291.73671076 49.2935375 289.26171875 48.9375 C288.15787842 48.78152344 287.05403809 48.62554687 285.91674805 48.46484375 C283 48 283 48 281.09689331 47.48101807 C278.84700884 46.9649045 276.83993585 46.8593574 274.53295898 46.83886719 C273.21393837 46.82445587 273.21393837 46.82445587 271.86827087 46.80975342 C270.4465432 46.8033786 270.4465432 46.8033786 268.99609375 46.796875 C268.00360123 46.79117493 267.0111087 46.78547485 265.98854065 46.77960205 C263.87949689 46.77015209 261.77043836 46.76361809 259.66137695 46.75976562 C256.50118315 46.75019291 253.34167808 46.71922679 250.18164062 46.6875 C237.4927726 46.62176945 225.44718237 47.5288327 213 50 Z " fill="#363435" transform="translate(0,0)"/>
<path d="M0 0 C1.17989502 -0.0007251 2.35979004 -0.0014502 3.57543945 -0.00219727 C22.4288441 0.1163441 22.4288441 0.1163441 24.5 2.1875 C26.66305945 2.46699645 28.8308919 2.70965251 31 2.9375 C36.99341433 3.65746912 42.70503825 4.87422423 48.5 6.5625 C49.19287109 6.7594043 49.88574219 6.95630859 50.59960938 7.15917969 C55.34164678 8.59733857 59.24877991 10.64835739 63.5 13.1875 C65.76985894 13.94790572 65.76985894 13.94790572 67.5 14.1875 C67.5 14.8475 67.5 15.5075 67.5 16.1875 C68.28375 16.290625 69.0675 16.39375 69.875 16.5 C72.5 17.1875 72.5 17.1875 74.5 20.1875 C75.49 20.5175 76.48 20.8475 77.5 21.1875 C77.5 21.8475 77.5 22.5075 77.5 23.1875 C78.304375 23.31125 78.304375 23.31125 79.125 23.4375 C82.37340691 24.46331271 84.78751859 26.15313894 87.5 28.1875 C87.5 28.8475 87.5 29.5075 87.5 30.1875 C88.16 30.1875 88.82 30.1875 89.5 30.1875 C89.5 30.8475 89.5 31.5075 89.5 32.1875 C90.7065625 32.5278125 90.7065625 32.5278125 91.9375 32.875 C96.41285739 34.52381588 100.38721318 36.79294412 104.5 39.1875 C104.5 39.8475 104.5 40.5075 104.5 41.1875 C105.82 41.8475 107.14 42.5075 108.5 43.1875 C105.18811918 44.30890434 103.42110803 44.06458979 100.1875 42.8125 C96.28647879 41.3991792 92.62203357 40.73191953 88.5 40.1875 C86.48583438 39.56493972 84.47984481 38.91183347 82.5 38.1875 C82.5 37.5275 82.5 36.8675 82.5 36.1875 C81.76136719 36.21070313 81.02273438 36.23390625 80.26171875 36.2578125 C79.24722656 36.27585938 78.23273438 36.29390625 77.1875 36.3125 C75.70830078 36.34730469 75.70830078 36.34730469 74.19921875 36.3828125 C71.19127858 36.22399834 68.72259236 35.83435903 65.80859375 35.203125 C58.09161289 33.72916131 50.34361002 33.81544113 42.51416016 33.81689453 C39.90069294 33.81254278 37.28894896 33.77618178 34.67578125 33.73828125 C24.74303 33.67329077 15.77306013 34.59317023 6.18603516 37.22802734 C2.62389058 38.15525136 -0.85592764 38.70040993 -4.5 39.1875 C-6.97377319 39.97676609 -6.97377319 39.97676609 -9.25 41 C-15.57338348 43.65330333 -21.99435404 46.01895135 -28.5 48.1875 C-28.5 48.8475 -28.5 49.5075 -28.5 50.1875 C-29.593125 50.55875 -30.68625 50.93 -31.8125 51.3125 C-39.20355031 54.0923781 -45.96323313 57.52489752 -51.5 63.1875 C-53.28125 64.3125 -53.28125 64.3125 -55 65.1875 C-58.01157842 66.81259157 -60.11722328 68.71647229 -62.5 71.1875 C-63.16 71.1875 -63.82 71.1875 -64.5 71.1875 C-64.5 71.8475 -64.5 72.5075 -64.5 73.1875 C-66.1796875 74.80859375 -66.1796875 74.80859375 -68.375 76.625 C-70.96193722 78.77150884 -72.61184374 80.35526562 -74.5 83.1875 C-75.16 83.1875 -75.82 83.1875 -76.5 83.1875 C-76.75136719 84.06664062 -77.00273437 84.94578125 -77.26171875 85.8515625 C-78.54542529 89.30987602 -80.07589196 91.6459289 -82.3125 94.5625 C-88.25355171 102.38786302 -88.25355171 102.38786302 -92.625 111.125 C-92.91375 111.805625 -93.2025 112.48625 -93.5 113.1875 C-94.985 113.6825 -94.985 113.6825 -96.5 114.1875 C-96.5 115.1775 -96.5 116.1675 -96.5 117.1875 C-97.16 117.1875 -97.82 117.1875 -98.5 117.1875 C-98.62503906 118.02152344 -98.75007813 118.85554688 -98.87890625 119.71484375 C-99.42538893 122.77033497 -100.11864792 125.73970132 -100.90917969 128.73999023 C-104.09542344 140.86214589 -105.67321008 152.31162011 -105.75 164.875 C-105.7593457 165.93259521 -105.76869141 166.99019043 -105.77832031 168.07983398 C-105.75448193 173.93720046 -105.28599151 179.3381991 -103.92871094 185.04223633 C-103.5 187.1875 -103.5 187.1875 -103.5 191.1875 C-102.84 191.1875 -102.18 191.1875 -101.5 191.1875 C-101.13648438 192.1775 -100.77296875 193.1675 -100.3984375 194.1875 C-97.85581835 200.92855607 -95.46922162 207.02606966 -90.8046875 212.62109375 C-89.5 214.1875 -89.5 214.1875 -87.9375 216.875 C-86.13573314 219.77349451 -83.96947574 221.83027316 -81.5 224.1875 C-80.92636719 224.78175781 -80.35273438 225.37601563 -79.76171875 225.98828125 C-79.15972656 226.61089844 -78.55773437 227.23351562 -77.9375 227.875 C-77.10025391 228.74705078 -77.10025391 228.74705078 -76.24609375 229.63671875 C-74.43282771 231.24715861 -72.70779436 232.20679484 -70.5 233.1875 C-70.5 234.1775 -70.5 235.1675 -70.5 236.1875 C-69.94183594 236.31511719 -69.38367188 236.44273437 -68.80859375 236.57421875 C-62.18216055 238.33454026 -56.81368323 240.87910819 -51.5 245.1875 C-49.1859378 245.91825648 -46.85171131 246.58888258 -44.5 247.1875 C-43.85409912 247.52289795 -43.20819824 247.8582959 -42.54272461 248.20385742 C-36.37747071 251.17264049 -28.14054941 250.36987142 -21.4375 250.375 C-20.59123047 250.38724609 -19.74496094 250.39949219 -18.87304688 250.41210938 C-13.38633114 250.42480031 -8.7797785 249.66515599 -3.5 248.1875 C-2.16951441 248.01763763 -0.83599423 247.86901493 0.5 247.75 C4.85827974 247.26670561 8.48535041 245.94831122 12.5 244.1875 C12.83 243.5275 13.16 242.8675 13.5 242.1875 C14.49 242.1875 15.48 242.1875 16.5 242.1875 C16.5 241.5275 16.5 240.8675 16.5 240.1875 C17.9562545 239.51630451 19.41507867 238.85068193 20.875 238.1875 C21.68710937 237.81625 22.49921875 237.445 23.3359375 237.0625 C25.5 236.1875 25.5 236.1875 27.5 236.1875 C27.5 235.5275 27.5 234.8675 27.5 234.1875 C29.5970545 231.70210207 31.1439695 230.32825624 34.1875 229.125 C34.950625 228.815625 35.71375 228.50625 36.5 228.1875 C36.83 227.1975 37.16 226.2075 37.5 225.1875 C38.098125 224.94 38.69625 224.6925 39.3125 224.4375 C42.09997059 222.84465966 42.96076005 220.77948687 44.42578125 218 C46.03195433 215.28994796 48.19652456 213.30912211 50.5 211.1875 C52.85953094 208.82796906 52.99141413 207.40854383 53.5 204.1875 C54.16 204.1875 54.82 204.1875 55.5 204.1875 C56.16 202.5375 56.82 200.8875 57.5 199.1875 C58.16 199.1875 58.82 199.1875 59.5 199.1875 C59.4690625 197.4859375 59.4690625 197.4859375 59.4375 195.75 C59.5 192.1875 59.5 192.1875 60.5 191.1875 C61.08560449 187.89908857 61.08560449 187.89908857 60.5 184.1875 C59.08138867 182.35943526 57.57799826 180.94090131 55.8125 179.44921875 C55.379375 179.03285156 54.94625 178.61648438 54.5 178.1875 C54.5 177.5275 54.5 176.8675 54.5 176.1875 C50.37485039 176.12202143 46.8540281 176.2239594 43.4140625 178.671875 C40.4309551 181.61722155 38.24881266 184.36038825 36.5 188.1875 C35.51 188.1875 34.52 188.1875 33.5 188.1875 C33.25507813 188.74566406 33.01015625 189.30382812 32.7578125 189.87890625 C29.00553467 196.76585097 23.06040301 202.32018888 16.265625 206.10546875 C14.22289365 207.2532634 14.22289365 207.2532634 12 209.8125 C7.86653593 213.73929086 3.18728861 215.35197454 -2.5 215.375 C-3.49 215.313125 -4.48 215.25125 -5.5 215.1875 C-5.5 215.8475 -5.5 216.5075 -5.5 217.1875 C-10.5809098 218.01771402 -15.53444951 218.37971513 -20.6875 218.375 C-21.42347412 218.37564453 -22.15944824 218.37628906 -22.91772461 218.37695312 C-29.24285917 218.31645841 -35.31315396 217.52261899 -41.5 216.1875 C-41.5 215.5275 -41.5 214.8675 -41.5 214.1875 C-42.82 214.1875 -44.14 214.1875 -45.5 214.1875 C-45.5 213.5275 -45.5 212.8675 -45.5 212.1875 C-46.49 211.8575 -47.48 211.5275 -48.5 211.1875 C-48.83 210.5275 -49.16 209.8675 -49.5 209.1875 C-50.180625 208.81625 -50.86125 208.445 -51.5625 208.0625 C-59.18583083 203.19654415 -64.36502666 196.6730288 -67.5 188.1875 C-67.5 187.1975 -67.5 186.2075 -67.5 185.1875 C-68.16 185.1875 -68.82 185.1875 -69.5 185.1875 C-69.83 181.8875 -70.16 178.5875 -70.5 175.1875 C-71.16 175.1875 -71.82 175.1875 -72.5 175.1875 C-74.90776681 162.54672424 -73.1430464 150.57511143 -70.5 138.1875 C-70.36851562 137.32125 -70.23703125 136.455 -70.1015625 135.5625 C-68.66346509 126.61433835 -62.80573397 119.14349461 -56.6640625 112.72265625 C-55.29857713 110.92186514 -54.90937932 109.39148402 -54.5 107.1875 C-53.84 107.1875 -53.18 107.1875 -52.5 107.1875 C-52.5 106.5275 -52.5 105.8675 -52.5 105.1875 C-51.18 104.8575 -49.86 104.5275 -48.5 104.1875 C-48.396875 103.589375 -48.29375 102.99125 -48.1875 102.375 C-47.40175967 99.87491714 -46.53081147 98.81214918 -44.5 97.1875 C-43.84 97.1875 -43.18 97.1875 -42.5 97.1875 C-42.5 96.5275 -42.5 95.8675 -42.5 95.1875 C-41.84 95.1875 -41.18 95.1875 -40.5 95.1875 C-40.5 94.5275 -40.5 93.8675 -40.5 93.1875 C-38.63671875 91.6796875 -38.63671875 91.6796875 -36.1875 90.0625 C-35.38699219 89.52367187 -34.58648437 88.98484375 -33.76171875 88.4296875 C-31.5 87.1875 -31.5 87.1875 -28.5 87.1875 C-28.5 86.5275 -28.5 85.8675 -28.5 85.1875 C-16.99090195 78.8651688 -6.36005788 73.55642752 6.6171875 70.8984375 C9.38575471 70.34400106 9.38575471 70.34400106 11.24389648 69.24316406 C22.01786428 64.20186585 35.55343244 64.71212536 47.18041992 64.79638672 C49.7998511 64.81242256 52.41772546 64.79646513 55.03710938 64.77734375 C66.77926823 64.76497707 77.96529694 66.02428121 89.5 68.1875 C89.5 68.8475 89.5 69.5075 89.5 70.1875 C90.7375 70.27 91.975 70.3525 93.25 70.4375 C103.08097759 71.5486937 111.84524605 75.61372434 120.5 80.1875 C121.655 80.72375 122.81 81.26 124 81.8125 C126.5 83.1875 126.5 83.1875 128.5 86.1875 C130.14915394 87.21612483 131.81847009 88.21270005 133.5 89.1875 C135.2304928 90.49194442 136.93885834 91.82621132 138.625 93.1875 C139.47320312 93.868125 140.32140625 94.54875 141.1953125 95.25 C144.9564253 98.41188466 144.9564253 98.41188466 146.5 100.1875 C146.5 100.8475 146.5 101.5075 146.5 102.1875 C147.11875 102.435 147.7375 102.6825 148.375 102.9375 C150.85068687 104.39378639 151.45125002 105.56562506 152.5 108.1875 C153.16 108.1875 153.82 108.1875 154.5 108.1875 C154.9803318 109.77048026 155.45921612 111.35389978 155.9375 112.9375 C156.20433594 113.81921875 156.47117187 114.7009375 156.74609375 115.609375 C157.38468494 117.79315835 157.96775833 119.97585498 158.5 122.1875 C159.16 122.1875 159.82 122.1875 160.5 122.1875 C161.34334329 124.41332389 162.17478551 126.64246026 163 128.875 C163.23847656 129.50083984 163.47695313 130.12667969 163.72265625 130.77148438 C165.0412725 134.36942299 165.79329235 137.35270253 165.5 141.1875 C166.16 141.1875 166.82 141.1875 167.5 141.1875 C172.06218618 160.41069227 170.88628642 180.63095937 169.5 200.1875 C168.84 200.1875 168.18 200.1875 167.5 200.1875 C167.55671875 201.47269531 167.6134375 202.75789062 167.671875 204.08203125 C167.66773206 209.38189139 166.39366365 213.87303489 164.75 218.875 C164.19425144 220.63247732 163.63956902 222.39029213 163.0859375 224.1484375 C162.81362305 225.00276367 162.54130859 225.85708984 162.26074219 226.73730469 C161.20563565 230.13558749 160.29503421 233.56275221 159.375 237 C157.96930946 241.97532794 156.2967739 245.85701138 153.5 250.1875 C152.48553388 252.18020131 151.48034504 254.17779266 150.5 256.1875 C149.84 256.1875 149.18 256.1875 148.5 256.1875 C148.396875 257.05375 148.29375 257.92 148.1875 258.8125 C147.46601586 262.35433123 146.22876739 265.03062042 144.5 268.1875 C143.84 268.1875 143.18 268.1875 142.5 268.1875 C142.23832031 268.74566406 141.97664063 269.30382812 141.70703125 269.87890625 C138.30551569 276.38471757 133.81566562 282.15160625 128.5 287.1875 C127.5936258 288.28303056 126.69789625 289.38744669 125.8125 290.5 C125.049375 291.386875 124.28625 292.27375 123.5 293.1875 C122.84 293.1875 122.18 293.1875 121.5 293.1875 C121.17 294.1775 120.84 295.1675 120.5 296.1875 C119.84 296.1875 119.18 296.1875 118.5 296.1875 C118.5 296.8475 118.5 297.5075 118.5 298.1875 C117.125 299.8125 117.125 299.8125 115.5 301.1875 C114.84 301.1875 114.18 301.1875 113.5 301.1875 C113.5 301.8475 113.5 302.5075 113.5 303.1875 C112.84 303.1875 112.18 303.1875 111.5 303.1875 C111.5 303.8475 111.5 304.5075 111.5 305.1875 C107.02941176 309.1875 107.02941176 309.1875 104.5 309.1875 C104.5 309.8475 104.5 310.5075 104.5 311.1875 C103.51 311.1875 102.52 311.1875 101.5 311.1875 C101.36851562 312.09628906 101.36851562 312.09628906 101.234375 313.0234375 C100.29429769 315.79366532 99.24746915 316.35720783 96.75 317.8125 C96.02554687 318.23660156 95.30109375 318.66070312 94.5546875 319.09765625 C92.26246333 320.31349378 89.91194712 321.23541561 87.5 322.1875 C86.489375 322.88875 85.47875 323.59 84.4375 324.3125 C81.5 326.1875 81.5 326.1875 77.5 326.1875 C77.5 326.8475 77.5 327.5075 77.5 328.1875 C76.51 328.1875 75.52 328.1875 74.5 328.1875 C74.5 328.8475 74.5 329.5075 74.5 330.1875 C73.61248047 330.46013672 73.61248047 330.46013672 72.70703125 330.73828125 C68.23734324 332.16012327 64.52027107 333.75417804 60.5 336.1875 C58.85368883 336.68139335 57.2044376 337.16854785 55.5390625 337.59375 C53.19580736 338.27607717 51.00919768 339.20173655 48.75 340.125 C34.04239903 345.43426945 18.26953319 345.67528147 2.81005859 345.57861328 C-0.26118856 345.56244108 -3.33113452 345.57861075 -6.40234375 345.59765625 C-26.95202565 345.61956775 -45.11584033 340.78935148 -64.5 334.1875 C-64.5 333.5275 -64.5 332.8675 -64.5 332.1875 C-65.07363281 332.06246094 -65.64726562 331.93742187 -66.23828125 331.80859375 C-68.55826154 331.17150072 -70.53541386 330.31998654 -72.6875 329.25 C-73.38230469 328.91097656 -74.07710938 328.57195312 -74.79296875 328.22265625 C-76.5 327.1875 -76.5 327.1875 -77.5 325.1875 C-79.47839764 324.46208753 -81.45785439 323.73927016 -83.4453125 323.0390625 C-86.21771727 321.89004303 -88.21495621 320.1117474 -90.5 318.1875 C-92.47711651 317.14298562 -94.47250996 316.13051862 -96.5 315.1875 C-96.5 314.5275 -96.5 313.8675 -96.5 313.1875 C-97.2425 312.94 -97.985 312.6925 -98.75 312.4375 C-101.70124062 311.09602699 -103.34814974 309.57844474 -105.5 307.1875 C-104.14475992 307.2766201 -102.790771 307.38477993 -101.4375 307.5 C-100.68339844 307.55800781 -99.92929688 307.61601562 -99.15234375 307.67578125 C-96.5 308.1875 -96.5 308.1875 -93.15625 309.62890625 C-89.42662185 311.21877979 -86.04248367 312.07109056 -82.0625 312.8125 C-80.82628906 313.05226563 -79.59007812 313.29203125 -78.31640625 313.5390625 C-66.00329158 315.43338783 -53.25541025 315.48290112 -40.8125 315.5625 C-39.69702789 315.57083862 -39.69702789 315.57083862 -38.559021 315.5793457 C-24.03109843 315.6334635 -10.37464237 313.72578775 3.82568359 310.64648438 C6.4424358 310.19737956 8.85117457 310.10327662 11.5 310.1875 C11.5 309.5275 11.5 308.8675 11.5 308.1875 C12.33144531 307.99414062 13.16289062 307.80078125 14.01953125 307.6015625 C15.64955078 307.21097656 15.64955078 307.21097656 17.3125 306.8125 C18.93091797 306.42964844 18.93091797 306.42964844 20.58203125 306.0390625 C23.65533343 305.30017119 23.65533343 305.30017119 26.5 303.1875 C27.82 303.1875 29.14 303.1875 30.5 303.1875 C30.5 302.5275 30.5 301.8675 30.5 301.1875 C31.08007812 301.07792969 31.66015625 300.96835937 32.2578125 300.85546875 C40.03745426 299.27643255 46.38469293 296.29201252 52.5 291.1875 C52.83 290.5275 53.16 289.8675 53.5 289.1875 C58.80769231 286.1875 58.80769231 286.1875 62.5 286.1875 C62.5 285.5275 62.5 284.8675 62.5 284.1875 C64.6171875 282.2421875 64.6171875 282.2421875 67.375 280.0625 C68.27992188 279.33804687 69.18484375 278.61359375 70.1171875 277.8671875 C72.5 276.1875 72.5 276.1875 74.5 276.1875 C74.5 275.5275 74.5 274.8675 74.5 274.1875 C76.07421875 272.6015625 76.07421875 272.6015625 78.1875 270.8125 C78.92097656 270.18601562 79.65445313 269.55953125 80.41015625 268.9140625 C81.95452214 267.63815648 83.53155307 266.4015548 85.125 265.1875 C90.5856719 260.58903945 94.0151613 255.85733021 96.5 249.1875 C96.83 248.5275 97.16 247.8675 97.5 247.1875 C98.16 247.1875 98.82 247.1875 99.5 247.1875 C100.16 245.5375 100.82 243.8875 101.5 242.1875 C102.16 242.1875 102.82 242.1875 103.5 242.1875 C103.62375 241.61 103.7475 241.0325 103.875 240.4375 C104.50648824 238.16414233 105.38858191 236.2621471 106.5 234.1875 C107.16 234.1875 107.82 234.1875 108.5 234.1875 C108.5825 232.90875 108.665 231.63 108.75 230.3125 C109.13752684 226.74171695 109.91783549 223.90083929 111.375 220.625 C114.34313455 213.78962445 115.30299997 206.49645475 116.5 199.1875 C117.16 199.1875 117.82 199.1875 118.5 199.1875 C118.36095156 195.43721611 118.21258389 191.68735719 118.0625 187.9375 C118.02318359 186.87402344 117.98386719 185.81054688 117.94335938 184.71484375 C117.90146484 183.69003906 117.85957031 182.66523438 117.81640625 181.609375 C117.77974854 180.66674805 117.74309082 179.72412109 117.70532227 178.75292969 C117.52012306 176.43893056 117.10475259 174.4194985 116.5 172.1875 C116.37794671 169.51209184 116.45532687 166.86788762 116.5 164.1875 C115.84 164.1875 115.18 164.1875 114.5 164.1875 C114.23445313 163.09050781 113.96890625 161.99351562 113.6953125 160.86328125 C113.33873185 159.40880753 112.9819504 157.95438302 112.625 156.5 C112.36396484 155.4181543 112.36396484 155.4181543 112.09765625 154.31445312 C111.33600548 151.22553613 110.55102058 148.31505146 109.3671875 145.35546875 C108.5 143.1875 108.5 143.1875 108.5 140.1875 C107.84 140.1875 107.18 140.1875 106.5 140.1875 C106.17 138.5375 105.84 136.8875 105.5 135.1875 C104.84 135.1875 104.18 135.1875 103.5 135.1875 C102.125 133.75390625 102.125 133.75390625 100.5 131.75 C94.22037208 124.43026808 88.12764452 118.18899033 78.8671875 115.015625 C76.60022223 114.22256124 74.61138861 113.26124929 72.5 112.125 C65.5355562 108.5585308 58.24761866 106.9048721 50.5 106.1875 C50.5 105.5275 50.5 104.8675 50.5 104.1875 C46.37386703 104.30675905 42.2479182 104.4310612 38.12207031 104.55981445 C36.72172048 104.60283026 35.32132936 104.64452493 33.92089844 104.68481445 C19.98658493 105.00211636 19.98658493 105.00211636 6.5 108.1875 C5.51 108.1875 4.52 108.1875 3.5 108.1875 C3.17 109.1775 2.84 110.1675 2.5 111.1875 C0.63432623 111.62847744 -1.23337997 112.06226251 -3.109375 112.45703125 C-6.82178062 113.59137741 -9.8629202 115.65465361 -13.10546875 117.75 C-15.5 119.1875 -15.5 119.1875 -18.17578125 120.1875 C-20.81808242 121.07412175 -20.81808242 121.07412175 -22.5 124.1875 C-26.94444444 127.1875 -26.94444444 127.1875 -29.5 127.1875 C-29.83 128.1775 -30.16 129.1675 -30.5 130.1875 C-31.16 130.1875 -31.82 130.1875 -32.5 130.1875 C-32.61408203 131.02474609 -32.61408203 131.02474609 -32.73046875 131.87890625 C-33.77330562 135.00741685 -35.55922615 136.731588 -37.8125 139.125 C-40.19931681 141.67751319 -42.50553267 144.19452798 -44.66796875 146.94140625 C-46.5 149.1875 -46.5 149.1875 -48.5 150.1875 C-49.62224855 152.06763106 -49.62224855 152.06763106 -50.625 154.25 C-50.97820312 154.98347656 -51.33140625 155.71695313 -51.6953125 156.47265625 C-51.96085937 157.03855469 -52.22640625 157.60445312 -52.5 158.1875 C-53.16 158.1875 -53.82 158.1875 -54.5 158.1875 C-54.5 159.1775 -54.5 160.1675 -54.5 161.1875 C-55.16 161.1875 -55.82 161.1875 -56.5 161.1875 C-56.27211278 163.14852954 -56.01694943 165.10640505 -55.75 167.0625 C-55.54117188 168.69832031 -55.54117188 168.69832031 -55.328125 170.3671875 C-54.79666196 173.30438751 -54.79666196 173.30438751 -52.484375 174.5078125 C-51.82953125 174.73210937 -51.1746875 174.95640625 -50.5 175.1875 C-50.17 175.5175 -49.84 175.8475 -49.5 176.1875 C-42.89577233 177.05200191 -38.97650673 175.80199444 -33.5 172.1875 C-32.51 171.8575 -31.52 171.5275 -30.5 171.1875 C-30.5 170.1975 -30.5 169.2075 -30.5 168.1875 C-29.84 168.1875 -29.18 168.1875 -28.5 168.1875 C-28.17 167.1975 -27.84 166.2075 -27.5 165.1875 C-26.7575 164.754375 -26.015 164.32125 -25.25 163.875 C-22.72948245 162.32831878 -21.59532515 161.25366028 -19.8125 159 C-18.6678125 157.6078125 -18.6678125 157.6078125 -17.5 156.1875 C-16.84 156.1875 -16.18 156.1875 -15.5 156.1875 C-15.5 155.5275 -15.5 154.8675 -15.5 154.1875 C-11.11538462 151.1875 -11.11538462 151.1875 -8.5 151.1875 C-8.5 150.5275 -8.5 149.8675 -8.5 149.1875 C-5.34059469 146.29890086 -2.47675948 144.66722446 1.5 143.1875 C2.634375 142.589375 3.76875 141.99125 4.9375 141.375 C6.45269015 140.63417825 7.97432004 139.90647059 9.5 139.1875 C10.89605469 138.50880859 10.89605469 138.50880859 12.3203125 137.81640625 C25.34959406 132.2750371 40.97223665 132.20592426 54.5 136.1875 C54.5 136.8475 54.5 137.5075 54.5 138.1875 C55.23605469 138.29835937 55.97210938 138.40921875 56.73046875 138.5234375 C61.34250231 139.62928476 64.72668539 142.4034914 68.5 145.1875 C69.17417969 145.68121094 69.84835937 146.17492187 70.54296875 146.68359375 C78.54731642 153.09026723 86.16370886 162.5229768 87.3671875 172.953125 C88.20828623 193.43635283 88.20828623 193.43635283 86.5 200.1875 C85.84 200.1875 85.18 200.1875 84.5 200.1875 C84.54125 201.425 84.5825 202.6625 84.625 203.9375 C84.63658291 207.20387962 84.3568702 209.4021947 82.5 212.1875 C81.84 212.1875 81.18 212.1875 80.5 212.1875 C80.17 214.8275 79.84 217.4675 79.5 220.1875 C78.84 220.1875 78.18 220.1875 77.5 220.1875 C77.37238281 220.75726563 77.24476563 221.32703125 77.11328125 221.9140625 C75.4330659 228.1426315 72.44448568 234.09784105 68.5 239.1875 C67.51 239.5175 66.52 239.8475 65.5 240.1875 C65.17 240.8475 64.84 241.5075 64.5 242.1875 C63.84 242.1875 63.18 242.1875 62.5 242.1875 C62.17 243.1775 61.84 244.1675 61.5 245.1875 C60.84 245.1875 60.18 245.1875 59.5 245.1875 C59.5 245.8475 59.5 246.5075 59.5 247.1875 C58.84 247.1875 58.18 247.1875 57.5 247.1875 C57.41105469 247.79207031 57.32210937 248.39664063 57.23046875 249.01953125 C56.29441662 251.79765388 55.28870841 252.35082735 52.8125 253.875 C52.00941406 254.37773437 51.20632813 254.88046875 50.37890625 255.3984375 C49.42886719 255.98882812 48.47882813 256.57921875 47.5 257.1875 C46.31932209 257.96789684 45.14106725 258.75196795 43.96484375 259.5390625 C42.72668889 260.35956575 41.4884078 261.17987856 40.25 262 C39.66001221 262.39727295 39.07002441 262.7945459 38.4621582 263.20385742 C35.16681558 265.35558531 32.42968712 266.73691557 28.5 267.1875 C28.5 267.8475 28.5 268.5075 28.5 269.1875 C27.65695312 269.52523438 26.81390625 269.86296875 25.9453125 270.2109375 C24.84960938 270.65695312 23.75390625 271.10296875 22.625 271.5625 C21.53445313 272.00335938 20.44390625 272.44421875 19.3203125 272.8984375 C16.43670638 274.01801338 16.43670638 274.01801338 14.5 276.1875 C6.97525396 278.835651 -0.54632889 280.63897096 -8.5 281.1875 C-8.5 281.8475 -8.5 282.5075 -8.5 283.1875 C-9.75296875 283.32027344 -11.0059375 283.45304687 -12.296875 283.58984375 C-13.94793246 283.76808291 -15.59897327 283.9464764 -17.25 284.125 C-18.075 284.21201172 -18.9 284.29902344 -19.75 284.38867188 C-20.54921875 284.47568359 -21.3484375 284.56269531 -22.171875 284.65234375 C-22.9050293 284.730896 -23.63818359 284.80944824 -24.39355469 284.89038086 C-26.48007532 285.13727258 -26.48007532 285.13727258 -28.37597656 285.71264648 C-31.21724716 286.34785008 -33.90180921 286.31737495 -36.8125 286.3203125 C-38.05386719 286.32160156 -39.29523438 286.32289063 -40.57421875 286.32421875 C-41.86972656 286.32035156 -43.16523438 286.31648438 -44.5 286.3125 C-45.76457031 286.31636719 -47.02914062 286.32023437 -48.33203125 286.32421875 C-70.38599388 286.30150612 -70.38599388 286.30150612 -72.5 284.1875 C-74.71380133 283.65313416 -76.94136053 283.22465388 -79.17578125 282.78515625 C-81.51106402 282.18465497 -83.35456559 281.2666664 -85.5 280.1875 C-87.418125 279.81625 -87.418125 279.81625 -89.375 279.4375 C-96.11413014 278.03397868 -102.28070868 275.06641891 -108.5 272.1875 C-109.14445068 271.88972656 -109.78890137 271.59195312 -110.45288086 271.28515625 C-115.32706742 268.95225262 -119.62003436 266.17645114 -123.9375 262.9375 C-124.58348145 262.45804932 -125.22946289 261.97859863 -125.89501953 261.48461914 C-139.42867723 251.33014554 -139.42867723 251.33014554 -141.5 247.1875 C-142.49 246.8575 -143.48 246.5275 -144.5 246.1875 C-144.5 245.5275 -144.5 244.8675 -144.5 244.1875 C-145.49 244.1875 -146.48 244.1875 -147.5 244.1875 C-148.17354499 242.75320999 -148.83859701 241.31492943 -149.5 239.875 C-150.056875 238.67423828 -150.056875 238.67423828 -150.625 237.44921875 C-151.5 235.1875 -151.5 235.1875 -151.5 232.1875 C-152.16 232.1875 -152.82 232.1875 -153.5 232.1875 C-155.2265625 229.66796875 -155.2265625 229.66796875 -157.125 226.375 C-158.07246094 224.75658203 -158.07246094 224.75658203 -159.0390625 223.10546875 C-160.5 220.1875 -160.5 220.1875 -160.5 217.1875 C-161.16 217.1875 -161.82 217.1875 -162.5 217.1875 C-162.99232068 215.44115495 -163.4678957 213.69009022 -163.9375 211.9375 C-164.20433594 210.96296875 -164.47117187 209.9884375 -164.74609375 208.984375 C-166.72925402 198.99664557 -166.66289753 188.83358237 -166.625 178.6875 C-166.62161621 177.37974609 -166.61823242 176.07199219 -166.61474609 174.72460938 C-166.57415438 167.04050356 -166.46369646 159.36461972 -166.125 151.6875 C-166.09422363 150.90052734 -166.06344727 150.11355469 -166.03173828 149.30273438 C-165.7988862 144.9316854 -164.97722593 141.29090537 -163.5 137.1875 C-163.20282886 135.0149604 -163.20282886 135.0149604 -163.125 132.9375 C-162.70857403 128.37994913 -161.26483163 124.62117809 -159.4375 120.44921875 C-158.44337791 118.2337375 -158.44337791 118.2337375 -158 115.95703125 C-157.835 115.37308594 -157.67 114.78914063 -157.5 114.1875 C-156.51 113.6925 -156.51 113.6925 -155.5 113.1875 C-154.92145148 111.23472151 -154.92145148 111.23472151 -154.5625 108.9375 C-153.80023094 105.17417166 -152.89344708 102.27903581 -150.5 99.1875 C-149.84 99.1875 -149.18 99.1875 -148.5 99.1875 C-148.396875 98.65125 -148.29375 98.115 -148.1875 97.5625 C-147.5 95.1875 -147.5 95.1875 -146.0625 92.4375 C-144.26157122 88.69156814 -143.40733929 85.23562913 -142.5 81.1875 C-141.84 81.1875 -141.18 81.1875 -140.5 81.1875 C-140.5 80.1975 -140.5 79.2075 -140.5 78.1875 C-139.84 78.1875 -139.18 78.1875 -138.5 78.1875 C-138.314375 77.5275 -138.12875 76.8675 -137.9375 76.1875 C-135.57718719 71.2616298 -131.7523413 67.34031924 -127.8203125 63.58203125 C-126.20187965 61.8726214 -125.89476997 60.47716585 -125.5 58.1875 C-124.84 58.1875 -124.18 58.1875 -123.5 58.1875 C-123.29375 57.65125 -123.0875 57.115 -122.875 56.5625 C-120.40411084 52.29460054 -117.21383238 48.75877746 -112.5 47.1875 C-112.005 46.1975 -112.005 46.1975 -111.5 45.1875 C-110.84 45.1875 -110.18 45.1875 -109.5 45.1875 C-109.17 43.8675 -108.84 42.5475 -108.5 41.1875 C-107.84 41.1875 -107.18 41.1875 -106.5 41.1875 C-106.5 40.5275 -106.5 39.8675 -106.5 39.1875 C-103.69566158 36.5788131 -101.50479154 34.57961377 -97.9375 33.1875 C-95.27896524 32.27993272 -95.27896524 32.27993272 -93.0625 29.75 C-90.31883426 27.00633426 -87.99184093 25.83071926 -84.5 24.1875 C-82.38946353 22.88172884 -80.30855189 21.53846723 -78.234375 20.17578125 C-76.5 19.1875 -76.5 19.1875 -74.5 19.1875 C-74.5 18.5275 -74.5 17.8675 -74.5 17.1875 C-67.875 14.1875 -67.875 14.1875 -64.5 14.1875 C-64.5 13.5275 -64.5 12.8675 -64.5 12.1875 C-63.93152344 12.07792969 -63.36304688 11.96835938 -62.77734375 11.85546875 C-57.68971941 10.81076459 -53.24937342 9.3463061 -48.5 7.1875 C-43.4780928 5.08089479 -38.94580667 3.85433347 -33.5 3.1875 C-33.17 2.8575 -32.84 2.5275 -32.5 2.1875 C-21.73108596 0.29845874 -10.9123057 0.00071806 0 0 Z " fill="#383637" transform="translate(253.5,81.8125)"/>
<path d="M0 0 C0.99 0.495 0.99 0.495 2 1 C-3.10703161 4.40468774 -8.22503947 5.29976564 -14.25 6.0625 C-18.77751397 6.52287478 -18.77751397 6.52287478 -23 8 C-24.41544952 8.09538312 -25.83524809 8.13073475 -27.25390625 8.1328125 C-28.5368457 8.13474609 -28.5368457 8.13474609 -29.84570312 8.13671875 C-31.19051758 8.13091797 -31.19051758 8.13091797 -32.5625 8.125 C-33.43197266 8.12886719 -34.30144531 8.13273437 -35.19726562 8.13671875 C-50.7474392 8.11352684 -50.7474392 8.11352684 -57 4 C-59.31691454 3.27833809 -61.64848923 2.59940471 -64 2 C-64 1.67 -64 1.34 -64 1 C-61.03 1.33 -58.06 1.66 -55 2 C-55 2.66 -55 3.32 -55 4 C-50.71737012 4.02517599 -46.43478221 4.04307876 -42.15209961 4.05493164 C-40.70254768 4.05988546 -39.25300054 4.06665038 -37.8034668 4.07543945 C-18.46882506 4.6179159 -18.46882506 4.6179159 0 0 Z " fill="#9F9598" transform="translate(265,325)"/>
<path d="M0 0 C1.00942657 -0.00421967 2.01885315 -0.00843933 3.05886841 -0.01278687 C14.94264846 -0.03463937 26.07892375 0.5335361 37.625 3.5 C37.625 3.83 37.625 4.16 37.625 4.5 C32.84561463 4.65670116 28.61609513 4.57625686 23.953125 3.51171875 C15.7525483 1.96685187 7.50166136 2.15417244 -0.8125 2.1875 C-2.07300674 2.1882402 -2.07300674 2.1882402 -3.35897827 2.18899536 C-23.55085916 0.9087899 -23.55085916 0.9087899 -41.375 6.5 C-43.97754135 7.09402639 -46.56612265 7.6296216 -49.1875 8.125 C-49.91259766 8.27195312 -50.63769531 8.41890625 -51.38476562 8.5703125 C-55.0675272 9.2711491 -57.79385322 9.58453328 -61.375 8.5 C-41.89790109 0.50759238 -20.74682686 0.00871196 0 0 Z " fill="#B8AEB2" transform="translate(256.375,46.5)"/>
<path d="M0 0 C0.33 0 0.66 0 1 0 C2.03898833 6.00281232 2.17721348 11.8685849 2.203125 17.953125 C2.20882507 19.00796082 2.21452515 20.06279663 2.22039795 21.14959717 C2.22982062 23.38194791 2.23637103 25.6143124 2.24023438 27.84667969 C2.24984943 31.19752701 2.28086163 34.54773621 2.3125 37.8984375 C2.37468742 50.90139281 1.54125885 63.24004415 -1 76 C-1.33 76 -1.66 76 -2 76 C-1.67 67.75 -1.34 59.5 -1 51 C-0.34 51 0.32 51 1 51 C0.67 34.17 0.34 17.34 0 0 Z " fill="#8A8083" transform="translate(457,226)"/>
<path d="M0 0 C14.19 0.33 28.38 0.66 43 1 C43 1.33 43 1.66 43 2 C36.52128871 4.36096509 30.40202165 4.23053565 23.5625 4.125 C22.44939453 4.11597656 21.33628906 4.10695313 20.18945312 4.09765625 C17.45940977 4.0742224 14.7298199 4.041414 12 4 C12 3.34 12 2.68 12 2 C8.04 1.67 4.08 1.34 0 1 C0 0.67 0 0.34 0 0 Z " fill="#72696C" transform="translate(188,397)"/>
<path d="M0 0 C1.08437599 0.00068733 1.08437599 0.00068733 2.19065857 0.00138855 C3.72127929 0.00440537 5.2518971 0.01227466 6.7824707 0.0246582 C9.08881932 0.04271605 11.39476046 0.04516895 13.70117188 0.04492188 C21.70316182 0.06471192 29.60099109 0.28899064 37.55859375 1.23046875 C37.55859375 1.89046875 37.55859375 2.55046875 37.55859375 3.23046875 C38.29464844 3.1840625 39.03070313 3.13765625 39.7890625 3.08984375 C47.85876528 2.79136069 47.85876528 2.79136069 51.74609375 5.23046875 C52.34421875 5.89046875 52.94234375 6.55046875 53.55859375 7.23046875 C52.72972656 7.08609375 51.90085937 6.94171875 51.046875 6.79296875 C46.60683624 6.07699386 42.14955207 5.52207317 37.68554688 4.98046875 C32.66830804 4.34018304 32.66830804 4.34018304 31.55859375 3.23046875 C22.6903502 1.57490892 13.41850489 2.11678643 4.43359375 2.16796875 C2.88932437 2.17299525 1.34505341 2.17755611 -0.19921875 2.18164062 C-3.94664812 2.19255178 -7.69401674 2.20975261 -11.44140625 2.23046875 C-7.76604082 -0.12955197 -4.22303379 -0.04407004 0 0 Z " fill="#9F9699" transform="translate(245.44140625,80.76953125)"/>
<path d="M0 0 C0.33 0 0.66 0 1 0 C1.02505615 1.08531006 1.0501123 2.17062012 1.07592773 3.28881836 C1.16983755 7.301316 1.27009767 11.31363382 1.37231445 15.32592773 C1.41572573 17.06514288 1.45739612 18.80440235 1.49731445 20.54370117 C1.55486768 23.03838488 1.6186042 25.5328441 1.68359375 28.02734375 C1.70030624 28.80963852 1.71701874 29.59193329 1.73423767 30.39793396 C1.50648731 33.99871781 1.50648731 33.99871781 3 37 C3.07179964 38.51928038 3.08392007 40.04167482 3.0625 41.5625 C3.05347656 42.38878906 3.04445312 43.21507812 3.03515625 44.06640625 C3.02355469 44.70449219 3.01195312 45.34257812 3 46 C-1.46853165 37.73245429 -1.29180098 28.48549639 -1.1875 19.3125 C-1.18685547 18.22388672 -1.18621094 17.13527344 -1.18554688 16.01367188 C-1.15579631 10.57592882 -0.9577458 5.35571452 0 0 Z " fill="#AEA2A5" transform="translate(148,227)"/>
<path d="M0 0 C1.40885258 0.00502467 2.81770689 0.00958587 4.2265625 0.01367188 C7.65108638 0.0253997 11.07552047 0.04181309 14.5 0.0625 C14.5 0.3925 14.5 0.7225 14.5 1.0625 C13.9016333 1.08231934 13.3032666 1.10213867 12.68676758 1.12255859 C0.57957821 1.54345579 -11.22490957 2.0710016 -23.1015625 4.62109375 C-26.25302026 5.20108516 -29.30389556 5.12516871 -32.5 5.0625 C-22.94092296 -1.31021802 -10.99962733 -0.06845705 0 0 Z " fill="#D5CDCF" transform="translate(289.5,185.9375)"/>
<path d="M0 0 C6.11976497 -0.07447293 12.23926278 -0.12875469 18.359375 -0.16479492 C20.43884887 -0.17982843 22.51829131 -0.20026074 24.59765625 -0.22631836 C27.59643334 -0.26294136 30.59478911 -0.27978111 33.59375 -0.29296875 C34.51490601 -0.30845261 35.43606201 -0.32393646 36.38513184 -0.33988953 C42.28304581 -0.34140766 46.59758211 0.61025698 52 3 C48.70641623 3.91692528 46.7889022 3.89997079 43.44921875 3.1015625 C34.98297392 1.42605421 26.41222176 1.53311037 17.8125 1.375 C16.08006031 1.33673554 14.34763793 1.29767919 12.61523438 1.2578125 C8.41029995 1.1627483 4.20527698 1.07838889 0 1 C0 0.67 0 0.34 0 0 Z " fill="#82787C" transform="translate(276,114)"/>
<path d="M0 0 C0.66902344 0.20496094 1.33804688 0.40992188 2.02734375 0.62109375 C14.43070174 4.10069351 27.1855579 4.24909283 40 4 C40 4.33 40 4.66 40 5 C34.9190902 5.83021402 29.96555049 6.19221513 24.8125 6.1875 C23.70853882 6.1884668 23.70853882 6.1884668 22.58227539 6.18945312 C16.25714083 6.12895841 10.18684604 5.33511899 4 4 C4 3.34 4 2.68 4 2 C2.68 2 1.36 2 0 2 C0 1.34 0 0.68 0 0 Z " fill="#5F575A" transform="translate(208,294)"/>
<path d="M0 0 C-4.66758645 2.64917069 -9.30487121 3.97920084 -14.51171875 5.25390625 C-17.21536654 5.93243149 -17.21536654 5.93243149 -20 8 C-22.6875 8.125 -22.6875 8.125 -25 8 C-25 8.66 -25 9.32 -25 10 C-27.97 10.66 -30.94 11.32 -34 12 C-33.01 11.01 -32.02 10.02 -31 9 C-30.01 9 -29.02 9 -28 9 C-28 8.34 -28 7.68 -28 7 C-27.14728516 6.83564453 -27.14728516 6.83564453 -26.27734375 6.66796875 C-21.18971941 5.62326459 -16.74937342 4.1588061 -12 2 C-10.61126574 1.39996199 -9.21514755 0.81675242 -7.8125 0.25 C-7.17957031 -0.01296875 -6.54664063 -0.2759375 -5.89453125 -0.546875 C-3.61447303 -1.09220851 -2.20288622 -0.72289836 0 0 Z " fill="#807679" transform="translate(217,87)"/>
<path d="M0 0 C0.66 0 1.32 0 2 0 C1.34206835 1.67013418 0.67276716 3.3357865 0 5 C-0.24105469 5.61230469 -0.48210937 6.22460938 -0.73046875 6.85546875 C-2.77425614 11.88712807 -2.77425614 11.88712807 -5 13 C-5.83888215 14.94438891 -5.83888215 14.94438891 -6.5 17.25 C-7.54157212 20.5650544 -8.65490451 23.79246459 -10 27 C-11.78360736 23.43278528 -10.20192707 19.64662339 -9 16 C-7.83232327 13.86183697 -6.5441919 11.87754943 -5.17578125 9.86328125 C-3.61016062 7.38221467 -2.7745355 4.81649272 -2 2 C-1.34 2 -0.68 2 0 2 C0 1.34 0 0.68 0 0 Z " fill="#AFA6A9" transform="translate(108,169)"/>
<path d="M0 0 C0.99193359 -0.00257813 1.98386719 -0.00515625 3.00585938 -0.0078125 C4.04162109 -0.00007812 5.07738281 0.00765625 6.14453125 0.015625 C7.16095703 0.00789062 8.17738281 0.00015625 9.22460938 -0.0078125 C15.15264208 0.00749553 20.2783202 0.55181041 25.95703125 2.265625 C25.95703125 2.925625 25.95703125 3.585625 25.95703125 4.265625 C23.97703125 4.265625 21.99703125 4.265625 19.95703125 4.265625 C19.95703125 3.605625 19.95703125 2.945625 19.95703125 2.265625 C10.71703125 2.265625 1.47703125 2.265625 -8.04296875 2.265625 C-4.77266801 0.08542451 -3.79147097 0.00953572 0 0 Z " fill="#958C8F" transform="translate(282.04296875,215.734375)"/>
<path d="M0 0 C0.33 0 0.66 0 1 0 C1 1.98 1 3.96 1 6 C0.34 6 -0.32 6 -1 6 C-1.1340625 6.71414062 -1.268125 7.42828125 -1.40625 8.1640625 C-1.98887419 10.94685963 -2.71704503 13.64248714 -3.5 16.375 C-4.67005921 20.59292075 -5.51703751 24.65333763 -6 29 C-6.66 29 -7.32 29 -8 29 C-7.14406776 20.09830472 -5.03815103 11.41334131 -2 3 C-1.34 3 -0.68 3 0 3 C0 2.01 0 1.02 0 0 Z " fill="#ADA3A6" transform="translate(157,196)"/>
<path d="M0 0 C2.31284456 0.14026283 4.62527591 0.28735558 6.9375 0.4375 C8.86916016 0.55931641 8.86916016 0.55931641 10.83984375 0.68359375 C14 1 14 1 15 2 C17.52195967 2.39943176 20.02963656 2.75079848 22.5625 3.0625 C23.27341797 3.15337891 23.98433594 3.24425781 24.71679688 3.33789062 C26.47738403 3.56239503 28.23863478 3.78168397 30 4 C30 4.33 30 4.66 30 5 C26.6871348 4.86179731 23.37482011 4.71316222 20.0625 4.5625 C19.11697266 4.52318359 18.17144531 4.48386719 17.19726562 4.44335938 C15.84858398 4.38051758 15.84858398 4.38051758 14.47265625 4.31640625 C13.64000244 4.27974854 12.80734863 4.24309082 11.94946289 4.20532227 C10 4 10 4 9 3 C7.48834346 2.60851239 5.96530368 2.26027543 4.4375 1.9375 C3.61121094 1.76089844 2.78492188 1.58429688 1.93359375 1.40234375 C1.29550781 1.26957031 0.65742188 1.13679688 0 1 C0 0.67 0 0.34 0 0 Z " fill="#746B6E" transform="translate(172,363)"/>
<path d="M0 0 C0.99 1.485 0.99 1.485 2 3 C2.515625 3.721875 3.03125 4.44375 3.5625 5.1875 C6.66416359 11.25597224 6.13891205 18.33222165 6 25 C3.59798496 20.80120206 3.84135851 17.75924459 4 13 C3.34 13 2.68 13 2 13 C1.66127487 11.58461283 1.32925376 10.16762037 1 8.75 C0.814375 7.96109375 0.62875 7.1721875 0.4375 6.359375 C0 4 0 4 0 0 Z " fill="#7F7679" transform="translate(366,233)"/>
<path d="M0 0 C5.95507399 0.3916035 10.62819824 1.37124595 16 4 C12.98968256 4.93423645 12.13349732 5.04449911 9 4 C9 4.66 9 5.32 9 6 C5.06326356 4.68775452 2.77280706 3.08089673 0 0 Z " fill="#585153" transform="translate(148,389)"/>
<path d="M0 0 C8.91 0 17.82 0 27 0 C27 0.66 27 1.32 27 2 C28.65 2 30.3 2 32 2 C32.495 2.99 32.495 2.99 33 4 C29.7 3.67 26.4 3.34 23 3 C23 2.34 23 1.68 23 1 C15.41 1 7.82 1 0 1 C0 0.67 0 0.34 0 0 Z " fill="#837A7D" transform="translate(281,185)"/>
<path d="M0 0 C0 0.66 0 1.32 0 2 C-1.65 2.33 -3.3 2.66 -5 3 C-5 3.66 -5 4.32 -5 5 C-7.28779038 6.03040167 -9.57951136 7.04952018 -11.875 8.0625 C-12.52597656 8.35705078 -13.17695313 8.65160156 -13.84765625 8.95507812 C-15.54010541 9.69661513 -17.26868575 10.35439001 -19 11 C-19.66 10.67 -20.32 10.34 -21 10 C-18.84655717 7.59756535 -17.03125235 6.39755056 -14 5.3125 C-13.319375 5.06113281 -12.63875 4.80976563 -11.9375 4.55078125 C-10 4 -10 4 -7 4 C-7 3.34 -7 2.68 -7 2 C-2.25 0 -2.25 0 0 0 Z " fill="#9C9295" transform="translate(289,347)"/>
<path d="M0 0 C5.28 0.33 10.56 0.66 16 1 C16 1.66 16 2.32 16 3 C17.65 3 19.3 3 21 3 C21.33 3.66 21.66 4.32 22 5 C16.81172145 4.48117215 11.65547251 3.84568781 6.5 3.0625 C4.96859375 2.83240234 4.96859375 2.83240234 3.40625 2.59765625 C2.6121875 2.40042969 1.818125 2.20320313 1 2 C0.67 1.34 0.34 0.68 0 0 Z " fill="#D3CACD" transform="translate(320,117)"/>
<path d="M0 0 C6.63093294 0.34773428 12.053928 0.96089654 18 4 C18 4.33 18 4.66 18 5 C10.78104605 5.24892945 5.83646704 4.55194545 0 0 Z " fill="#ADA3A6" transform="translate(299,51)"/>
<path d="M0 0 C2.52845528 1.26422764 2.76422764 2.52845528 4 5 C4.66 5.33 5.32 5.66 6 6 C6 7.32 6 8.64 6 10 C6.66 10 7.32 10 8 10 C8.33 13.3 8.66 16.6 9 20 C6.6870518 17.6870518 6.50419025 16.52095125 5.875 13.375 C5.70742188 12.55773437 5.53984375 11.74046875 5.3671875 10.8984375 C5.24601562 10.27195313 5.12484375 9.64546875 5 9 C4.34 9 3.68 9 3 9 C2.01 6.03 1.02 3.06 0 0 Z " fill="#A1989B" transform="translate(409,195)"/>
<path d="M0 0 C3.28525892 6.57051784 -1.19222312 17.38285445 -3 24 C-3.33 24 -3.66 24 -4 24 C-4.08333357 19.1666528 -3.95261487 14.76307437 -3 10 C-2.34 10 -1.68 10 -1 10 C-1.01160156 9.36191406 -1.02320313 8.72382813 -1.03515625 8.06640625 C-1.04869141 6.82697266 -1.04869141 6.82697266 -1.0625 5.5625 C-1.07410156 4.73878906 -1.08570313 3.91507812 -1.09765625 3.06640625 C-1 1 -1 1 0 0 Z " fill="#C9C0C2" transform="translate(455,292)"/>
<path d="M0 0 C-8.261959 4.59225513 -8.261959 4.59225513 -13 4 C-13 4.66 -13 5.32 -13 6 C-15.31 6 -17.62 6 -20 6 C-19.01 5.67 -18.02 5.34 -17 5 C-17 4.34 -17 3.68 -17 3 C-13.7 2.67 -10.4 2.34 -7 2 C-7 1.34 -7 0.68 -7 0 C-2.25 -1.125 -2.25 -1.125 0 0 Z " fill="#7A7375" transform="translate(333,449)"/>
<path d="M0 0 C0.66 0.33 1.32 0.66 2 1 C-1.43361902 4.63559661 -4.7973607 7.36113346 -9 10 C-9.66 9.67 -10.32 9.34 -11 9 C-9.71034824 7.62437146 -8.37310707 6.29233607 -7 5 C-6.34 5 -5.68 5 -5 5 C-5 4.34 -5 3.68 -5 3 C-2.625 1.3125 -2.625 1.3125 0 0 Z " fill="#7B7275" transform="translate(243,233)"/>
<path d="M0 0 C0 0.66 0 1.32 0 2 C-0.66 2 -1.32 2 -2 2 C-2.23460937 2.63421875 -2.46921875 3.2684375 -2.7109375 3.921875 C-4 6 -4 6 -6.1640625 6.828125 C-6.97617188 6.96734375 -7.78828125 7.1065625 -8.625 7.25 C-9.85089844 7.47429687 -9.85089844 7.47429687 -11.1015625 7.703125 C-11.72804687 7.80109375 -12.35453125 7.8990625 -13 8 C-10.76136124 4.46530721 -8.90705182 3.36746814 -5 2 C-2 0 -2 0 0 0 Z " fill="#857C7E" transform="translate(260,223)"/>
<path d="M0 0 C2.56864728 1.28432364 2.946539 2.36634751 4 5 C4 6.32 4 7.64 4 9 C4.66 9 5.32 9 6 9 C6 10.98 6 12.96 6 15 C5.67 14.01 5.34 13.02 5 12 C4.34 12 3.68 12 3 12 C2.49166409 10.75336669 1.99368855 9.50250613 1.5 8.25 C1.2215625 7.55390625 0.943125 6.8578125 0.65625 6.140625 C0 4 0 4 0 0 Z " fill="#A69B9E" transform="translate(59,316)"/>
<path d="M0 0 C0.33 0 0.66 0 1 0 C1.18483183 4.0663003 0.93193597 6.45811739 -1 10 C-1.33 11.216875 -1.66 12.43375 -2 13.6875 C-2.33 14.780625 -2.66 15.87375 -3 17 C-3.66 17.33 -4.32 17.66 -5 18 C-4.27595226 13.95295419 -3.16553713 10.10929598 -1.9375 6.1875 C-1.57527344 5.02605469 -1.21304687 3.86460937 -0.83984375 2.66796875 C-0.56269531 1.78753906 -0.28554688 0.90710938 0 0 Z " fill="#867C80" transform="translate(368,293)"/>
<path d="M0 0 C1.485 0.99 1.485 0.99 3 2 C3.25 5.5625 3.25 5.5625 3 9 C2.67 9.33 2.34 9.66 2 10 C1.63239269 12.32817964 1.29758419 14.6618385 1 17 C0.34 17 -0.32 17 -1 17 C-0.9278125 16.10796875 -0.855625 15.2159375 -0.78125 14.296875 C-0.6884375 13.12640625 -0.595625 11.9559375 -0.5 10.75 C-0.4071875 9.58984375 -0.314375 8.4296875 -0.21875 7.234375 C-0.05595356 4.82731342 0 2.41256049 0 0 Z " fill="#BCB3B6" transform="translate(312,264)"/>
<path d="M0 0 C0.66 0.33 1.32 0.66 2 1 C1.87431641 1.88751953 1.87431641 1.88751953 1.74609375 2.79296875 C1.19110576 7.09939457 0.76773348 10.75552644 2 15 C1.34 15 0.68 15 0 15 C-1.99785435 10.8794254 -2.17835515 7.54805635 -2 3 C-1.34 3 -0.68 3 0 3 C0 2.01 0 1.02 0 0 Z " fill="#A1979A" transform="translate(199,240)"/>
<path d="M0 0 C0.66 0.33 1.32 0.66 2 1 C-3.24105012 6.6778043 -3.24105012 6.6778043 -7 7 C-9.67270491 7.06179665 -12.32529106 7.04457848 -15 7 C-15 6.67 -15 6.34 -15 6 C-14.33613281 5.90203125 -13.67226562 5.8040625 -12.98828125 5.703125 C-7.62714274 4.79525337 -3.97963587 3.97963587 0 0 Z " fill="#8E8488" transform="translate(221,253)"/>
<path d="M0 0 C1.43410153 3.78819273 0.51009497 6.06521279 -0.9375 9.75 C-1.31777344 10.73484375 -1.69804687 11.7196875 -2.08984375 12.734375 C-2.39019531 13.48203125 -2.69054687 14.2296875 -3 15 C-3.33 15 -3.66 15 -4 15 C-4.50610724 8.92671312 -3.04157942 5.22771463 0 0 Z " fill="#BFB5B8" transform="translate(450,317)"/>
<path d="M0 0 C2 1 2 1 3.0625 2.9375 C4.37784905 7.23430691 4.67036215 11.53253967 5 16 C0.58390253 11.58390253 0.49075696 5.92782749 0 0 Z " fill="#81777A" transform="translate(450,196)"/>
<path d="M0 0 C1.32 0.33 2.64 0.66 4 1 C3.34 1 2.68 1 2 1 C2 1.66 2 2.32 2 3 C0.3789897 3.69685498 -1.24696066 4.38222861 -2.875 5.0625 C-3.77992188 5.44535156 -4.68484375 5.82820313 -5.6171875 6.22265625 C-8 7 -8 7 -10 6 C-7.93243723 3.2027092 -6.85559629 2.97307727 -3.3125 2.3125 C-2.219375 2.209375 -1.12625 2.10625 0 2 C0 1.34 0 0.68 0 0 Z " fill="#ADA3A7" transform="translate(174,62)"/>
<path d="M0 0 C0.66 0.33 1.32 0.66 2 1 C-0.05127045 4.9945793 -1.88912162 7.10267152 -6 9 C-6.66 8.67 -7.32 8.34 -8 8 C-6.71034824 6.62437146 -5.37310707 5.29233607 -4 4 C-3.34 4 -2.68 4 -2 4 C-2 3.34 -2 2.68 -2 2 C-1.34 2 -0.68 2 0 2 C0 1.34 0 0.68 0 0 Z " fill="#736B6D" transform="translate(213,175)"/>
<path d="M0 0 C-4.36200187 2.44697666 -8.02693484 3.50269348 -13 4 C-12.4375 2.0625 -12.4375 2.0625 -11 0 C-7.08355188 -0.94284862 -3.83576122 -1.38087404 0 0 Z " fill="#B4AAAD" transform="translate(267,151)"/>
<path d="M0 0 C0 0.66 0 1.32 0 2 C-3.16240582 4.10827055 -4.50657469 4.33817465 -8.1875 4.625 C-9.08855469 4.69976562 -9.98960937 4.77453125 -10.91796875 4.8515625 C-11.60503906 4.90054687 -12.29210937 4.94953125 -13 5 C-10.8010559 2.48396678 -9.19278353 1.52440313 -5.9375 0.8125 C-5.24527344 0.65394531 -4.55304688 0.49539063 -3.83984375 0.33203125 C-2 0 -2 0 0 0 Z " fill="#B5ABAE" transform="translate(318,416)"/>
<path d="M0 0 C2.475 0.99 2.475 0.99 5 2 C5 2.66 5 3.32 5 4 C6.32 4.66 7.64 5.32 9 6 C6.21176345 7.0326802 5.1322726 7.04509293 2.25 6.0625 C1.5075 5.711875 0.765 5.36125 0 5 C0.66 4.67 1.32 4.34 2 4 C2.66 4.33 3.32 4.66 4 5 C4 4.34 4 3.68 4 3 C3.01 3 2.02 3 1 3 C0.67 2.01 0.34 1.02 0 0 Z " fill="#7F777A" transform="translate(353,119)"/>
<path d="M0 0 C0.33 0 0.66 0 1 0 C1.22151549 1.79008467 1.42682213 3.58218162 1.625 5.375 C1.74101562 6.37273437 1.85703125 7.37046875 1.9765625 8.3984375 C1.98429687 9.25695312 1.99203125 10.11546875 2 11 C1.34 11.66 0.68 12.32 0 13 C-0.64767793 15.57061311 -0.64767793 15.57061311 -1 18 C-1.66 18 -2.32 18 -3 18 C-2.86722656 17.45472656 -2.73445313 16.90945313 -2.59765625 16.34765625 C-1.32210753 10.90097013 -0.53036157 5.56879648 0 0 Z " fill="#D1C9CC" transform="translate(421,282)"/>
<path d="M0 0 C0.91307373 3.08162384 1.41112802 5.79320141 1 9 C-1 10.8125 -1 10.8125 -3 12 C-3.34833144 7.12335991 -2.41685712 4.22949995 0 0 Z " fill="#6F6769" transform="translate(94,204)"/>
<path d="M0 0 C1 2 1 2 0.375 4.4375 C-1.27706844 7.51635481 -2.91798591 8.45899296 -6 10 C-4.125 5.25 -4.125 5.25 -3 3 C-2.34 3 -1.68 3 -1 3 C-0.67 2.01 -0.34 1.02 0 0 Z " fill="#857C7F" transform="translate(354,326)"/>
<path d="M0 0 C0.309375 0.639375 0.61875 1.27875 0.9375 1.9375 C1.8345163 3.93610821 1.8345163 3.93610821 3 5 C3.07179964 6.51928038 3.08392007 8.04167482 3.0625 9.5625 C3.05347656 10.38878906 3.04445312 11.21507812 3.03515625 12.06640625 C3.01775391 13.02353516 3.01775391 13.02353516 3 14 C0.37625198 8.75250397 -0.09534716 5.91152367 0 0 Z " fill="#988E92" transform="translate(148,259)"/>
<path d="M0 0 C0.66 0 1.32 0 2 0 C0.41037341 4.03520597 -1.28232318 8.01811282 -3 12 C-4.46726798 8.18510326 -3.43336419 5.70988378 -2 2 C-1.34 2 -0.68 2 0 2 C0 1.34 0 0.68 0 0 Z " fill="#837A7D" transform="translate(108,169)"/>
<path d="M0 0 C0.66 0.33 1.32 0.66 2 1 C-0.25 3.5625 -0.25 3.5625 -3 6 C-4.32 5.67 -5.64 5.34 -7 5 C-4.69 3.35 -2.38 1.7 0 0 Z " fill="#C1B9BC" transform="translate(274,284)"/>
<path d="M0 0 C5.98993047 -0.3152595 9.63560356 0.31780178 15 3 C11.08082574 4.95958713 6.56286639 3.17397688 2.5625 1.9375 C1.716875 1.628125 0.87125 1.31875 0 1 C0 0.67 0 0.34 0 0 Z " fill="#847B7E" transform="translate(336,119)"/>
<path d="M0 0 C1 3 1 3 -0.1875 6.125 C-2 9 -2 9 -4.1875 9.875 C-5.0846875 9.936875 -5.0846875 9.936875 -6 10 C-4.34832443 6.4213696 -2.21713508 3.25179812 0 0 Z " fill="#918689" transform="translate(302,294)"/>
<path d="M0 0 C1.98 0 3.96 0 6 0 C2.14376321 3.97674419 2.14376321 3.97674419 -1.11328125 4.04296875 C-3.08863015 3.7798228 -5.04718291 3.39718314 -7 3 C-7 2.67 -7 2.34 -7 2 C-4.69 2 -2.38 2 0 2 C0 1.34 0 0.68 0 0 Z " fill="#CDC4C7" transform="translate(248,297)"/>
<path d="M0 0 C0.99 0.33 1.98 0.66 3 1 C1.02 2.98 -0.96 4.96 -3 7 C-3.99 6.67 -4.98 6.34 -6 6 C-4.02 4.02 -2.04 2.04 0 0 Z " fill="#D8D3D5" transform="translate(118,100)"/>
<path d="M0 0 C-3.00617269 3.00617269 -5.82381598 2.59585316 -10 3 C-10 2.34 -10 1.68 -10 1 C-3.71428571 -1.42857143 -3.71428571 -1.42857143 0 0 Z " fill="#867E81" transform="translate(275,389)"/>
<path d="M0 0 C3.86648272 1.04097612 7.49461443 2.03698408 11 4 C8.3333581 5.33332095 6.83319697 4.67102033 4 4 C4 3.34 4 2.68 4 2 C2.68 2 1.36 2 0 2 C0 1.34 0 0.68 0 0 Z " fill="#93888B" transform="translate(177,446)"/>
<path d="M0 0 C6.15234375 0.5859375 6.15234375 0.5859375 8 1 C8.33 1.66 8.66 2.32 9 3 C7.35 3 5.7 3 4 3 C4.33 3.66 4.66 4.32 5 5 C3.68 4.67 2.36 4.34 1 4 C0.67 2.68 0.34 1.36 0 0 Z " fill="#C1B7BC" transform="translate(145,387)"/>
<path d="M0 0 C0.33 1.32 0.66 2.64 1 4 C0.01 4.33 -0.98 4.66 -2 5 C-2 5.66 -2 6.32 -2 7 C-3.32 7.33 -4.64 7.66 -6 8 C-6 6 -6 6 -4.625 4.375 C-3 3 -3 3 -1 3 C-0.67 2.01 -0.34 1.02 0 0 Z " fill="#B9B0B3" transform="translate(378,372)"/>
<path d="M0 0 C3.86648272 1.04097612 7.49461443 2.03698408 11 4 C8.3333581 5.33332095 6.83319697 4.67102033 4 4 C4 3.34 4 2.68 4 2 C2.68 2 1.36 2 0 2 C0 1.34 0 0.68 0 0 Z " fill="#A49A9D" transform="translate(208,294)"/>
<path d="M0 0 C0 0.99 0 1.98 0 3 C-0.66 3.66 -1.32 4.32 -2 5 C-3.32 5 -4.64 5 -6 5 C-5.67 4.01 -5.34 3.02 -5 2 C-2.4375 0.8125 -2.4375 0.8125 0 0 Z " fill="#C6BDBF" transform="translate(209,139)"/>
<path d="M0 0 C1.32 0.33 2.64 0.66 4 1 C3.67 1.66 3.34 2.32 3 3 C0.93359375 3.6328125 0.93359375 3.6328125 -1.5625 4.125 C-2.38878906 4.29257813 -3.21507812 4.46015625 -4.06640625 4.6328125 C-4.70449219 4.75398438 -5.34257812 4.87515625 -6 5 C-4.6875 3.5 -4.6875 3.5 -3 2 C-2.01 2 -1.02 2 0 2 C0 1.34 0 0.68 0 0 Z " fill="#9B9195" transform="translate(189,94)"/>
<path d="M0 0 C1.43836751 0.11458693 2.87570966 0.24209116 4.3125 0.375 C5.51326172 0.47941406 5.51326172 0.47941406 6.73828125 0.5859375 C9 1 9 1 12 3 C10.37581255 3.08090971 8.75048255 3.13914995 7.125 3.1875 C5.76761719 3.23970703 5.76761719 3.23970703 4.3828125 3.29296875 C3.20332031 3.14794922 3.20332031 3.14794922 2 3 C1.34 2.01 0.68 1.02 0 0 Z " fill="#80757A" transform="translate(148,389)"/>
<path d="M0 0 C1.32 0.33 2.64 0.66 4 1 C0.48812804 3.40814077 -1.72656908 4.36629408 -6 4 C-5.34 3.34 -4.68 2.68 -4 2 C-2.68 2 -1.36 2 0 2 C0 1.34 0 0.68 0 0 Z " fill="#8A8284" transform="translate(284,383)"/>
<path d="M0 0 C1.37245106 2.74490212 0.93580311 4.12060581 0 7 C-2.0625 8.3125 -2.0625 8.3125 -4 9 C-2.94124926 5.59687262 -1.99097846 2.98646769 0 0 Z " fill="#938A8E" transform="translate(440,345)"/>
<path d="M0 0 C0 0.99 0 1.98 0 3 C-1.65 3.33 -3.3 3.66 -5 4 C-5 4.66 -5 5.32 -5 6 C-6.32 5.67 -7.64 5.34 -9 5 C-7.87926138 4.16094435 -6.75325453 3.32892169 -5.625 2.5 C-4.99851562 2.0359375 -4.37203125 1.571875 -3.7265625 1.09375 C-2 0 -2 0 0 0 Z " fill="#BDB4B7" transform="translate(298,341)"/>
<path d="M0 0 C0.33 0.66 0.66 1.32 1 2 C0.67 2.66 0.34 3.32 0 4 C-0.66 4 -1.32 4 -2 4 C-2.33 5.65 -2.66 7.3 -3 9 C-3.99 9 -4.98 9 -6 9 C-5 7 -4 5 -3 3 C-2.34 3 -1.68 3 -1 3 C-0.67 2.01 -0.34 1.02 0 0 Z " fill="#ADA5A7" transform="translate(97,123)"/>
<path d="M0 0 C0.33 0.99 0.66 1.98 1 3 C0.360625 3.268125 -0.27875 3.53625 -0.9375 3.8125 C-3.33131686 4.88667752 -3.33131686 4.88667752 -4 8 C-4.33 7.34 -4.66 6.68 -5 6 C-2.59016393 1.29508197 -2.59016393 1.29508197 0 0 Z " fill="#6F676A" transform="translate(426,372)"/>
<path d="M0 0 C0.6875 1.625 0.6875 1.625 1 4 C-0.4375 7.25 -0.4375 7.25 -2 10 C-2.6875 8.375 -2.6875 8.375 -3 6 C-1.5625 2.75 -1.5625 2.75 0 0 Z " fill="#8D8386" transform="translate(187,208)"/>
</svg>
